<?xml version="1.0" encoding="UTF-8"?>
<svg version="1.1" xmlns="http://www.w3.org/2000/svg" width="200" height="200">
<path d="M0 0 C66 0 132 0 200 0 C200 66 200 132 200 200 C134 200 68 200 0 200 C0 134 0 68 0 0 Z " fill="#FEFEFD" transform="translate(0,0)"/>
<path d="M0 0 C0.66 0.33 1.32 0.66 2 1 C1.5153125 1.49886719 1.030625 1.99773438 0.53125 2.51171875 C-8.01924543 11.67061481 -14.50789168 21.91592219 -18 34 C-18.35707031 35.17691406 -18.71414062 36.35382813 -19.08203125 37.56640625 C-20.41808656 43.03845202 -20.33909493 48.52022401 -20.3125 54.125 C-20.31193604 55.23141846 -20.31137207 56.33783691 -20.31079102 57.4777832 C-20.22937707 64.73745978 -19.5786773 71.2364906 -17.55859375 78.23046875 C-16.90281043 81.48186998 -17.19999901 83.79550164 -18 87 C-20.14435389 90.01797955 -21.28744421 90.86355315 -24.9375 91.5625 C-29.21144791 90.77748916 -30.46178992 89.52529178 -33 86 C-38.96411989 71.04334702 -35.33828182 49.48744721 -29.4609375 35.21875 C-22.89212708 20.74629069 -13.06462665 9.0726574 0 0 Z " fill="#5B5C57" transform="translate(66,53)"/>
<path d="M0 0 C9.26781922 3.04195379 17.38645563 6.78928625 25 13 C25.84175781 13.67933594 26.68351562 14.35867187 27.55078125 15.05859375 C40.77585246 26.31696242 51.62008873 43.52327786 54 61 C54.19441797 64.68489867 54.19580969 68.31587688 54 72 C52.26561725 68.74312741 51.04897471 65.41060131 49.8125 61.9375 C42.18742577 42.06339983 27.30233557 28.44361189 8.31005859 19.60595703 C3.10102783 17.29854584 -2.04929154 15.73800536 -7.6796875 14.765625 C-10.62712054 13.79307134 -11.49120076 12.67579931 -13 10 C-13.48384107 6.12927143 -13.52085302 3.90583133 -11.5625 0.5 C-7.55318507 -1.84691606 -4.29507057 -1.11838403 0 0 Z " fill="#595A56" transform="translate(106,26)"/>
<path d="M0 0 C3.875 0.625 3.875 0.625 6.4375 2.125 C8.11548183 5.04322928 8.41531767 7.15922058 7.79296875 10.48046875 C3.13505224 21.36215454 -13.40283623 27.99290752 -23.47265625 32.36328125 C-42.59319222 38.96855731 -64.93178501 37.65885521 -83 28.875 C-84.38173528 28.13748213 -85.75973074 27.39257074 -87.125 26.625 C-86.465 26.295 -85.805 25.965 -85.125 25.625 C-84.3 25.91375 -83.475 26.2025 -82.625 26.5 C-78.11175981 27.95068435 -73.84070952 28.33655689 -69.125 28.625 C-68.22910156 28.69074219 -67.33320312 28.75648438 -66.41015625 28.82421875 C-45.43405616 29.65865895 -25.58472652 20.22593242 -10.125 6.625 C-9.00360876 5.43263463 -7.89527892 4.22753545 -6.8125 3 C-4.05525719 0.56336682 -3.46506154 0.20270927 0 0 Z " fill="#5A5B57" transform="translate(161.125,128.375)"/>
<path d="M0 0 C2.87029869 1.79393668 4.49131638 2.98263276 6 6 C6.375 9.3125 6.375 9.3125 6 13 C2.79520377 16.87949018 0.69366403 18.80826445 -4.3125 19.375 C-8 19 -8 19 -10.875 16.625 C-13.94557135 12.83194127 -14.38239394 10.87552277 -14 6 C-10.80201356 -0.5413359 -6.86360632 -0.88906818 0 0 Z " fill="#FCB915" transform="translate(105,125)"/>
<path d="M0 0 C5.53846154 3.07692308 5.53846154 3.07692308 7 6 C7.39447548 10.18144011 7.45035186 12.30946048 5.125 15.875 C2.26113472 18.73886528 0.57659821 19.20433297 -3.375 19.375 C-6.8830628 19.32424025 -7.69409716 19.25236984 -10.5 16.9375 C-12.28133146 13.44905922 -12.92996789 10.92179814 -13 7 C-10.21065191 0.72396681 -6.69172404 -0.68051431 0 0 Z " fill="#FBB914" transform="translate(104,92)"/>
<path d="M0 0 C2.27611702 3.79352837 2.35733353 7.19802282 1.5 11.5 C-0.4375 14.5625 -0.4375 14.5625 -3.5 16.5 C-6.62798656 17.12337099 -9.37487559 17.1483903 -12.5 16.5 C-15.00160818 14.62379387 -16.11945652 13.26108697 -17.5 10.5 C-17.63589314 7.05540426 -17.38376494 3.83621263 -16.5 0.5 C-11.53586338 -3.7376776 -5.4757172 -3.28543032 0 0 Z " fill="#FABA1A" transform="translate(126.5,77.5)"/>
<path d="M0 0 C3.74225404 1.1566967 5.28964665 1.79776291 7.4375 5.0625 C7.99671637 8.97701456 8.07024809 11.1007229 5.875 14.4375 C2.58257816 16.6324479 0.39580645 17.13194397 -3.5625 17.0625 C-6.5 15.0625 -6.5 15.0625 -8.5625 12.0625 C-9.36035988 7.59448469 -9.07984028 5.81499495 -6.5 2.0625 C-3.5625 0.0625 -3.5625 0.0625 0 0 Z " fill="#F4BF3A" transform="translate(82.5625,109.9375)"/>
<path d="M0 0 C2 1.125 2 1.125 3 3 C3.38732567 6.5504853 3.39304549 9.06651697 2 12.375 C-0.5994693 14.48706881 -2.68013539 14.97211356 -5.9921875 15.22265625 C-8 15 -8 15 -11 13 C-13.49051307 9.26423039 -13.80096948 7.40533215 -13 3 C-9.04915622 -1.93855472 -5.67545997 -1.37309515 0 0 Z " fill="#FAB918" transform="translate(87,78)"/>
<path d="M0 0 C3 2.0625 3 2.0625 5 5 C5.1506132 9.29247606 4.66257079 11.22050496 1.875 14.5 C-1.93532871 16.48799759 -3.91964404 16.20899436 -8 15 C-10.81972931 12.63506574 -10.97850831 11.1719335 -11.4375 7.5 C-11 4 -11 4 -9.4375 1.5625 C-6.01685857 -0.63021887 -3.99048721 -0.63007693 0 0 Z " fill="#FAB91A" transform="translate(122,111)"/>
<path d="M0 0 C3 1 3 1 4.75390625 4.28125 C5.37087171 5.68137085 5.97298402 7.0881021 6.5625 8.5 C7.02765015 9.597677 7.02765015 9.597677 7.50219727 10.7175293 C11.22360916 19.69773959 12.32760718 27.26278648 12 37 C10.26561725 33.74312741 9.04897471 30.41060131 7.8125 26.9375 C5.65679821 21.24028813 2.96349747 16.37189759 -0.44921875 11.33984375 C-1.81765878 9.27511937 -2.95015877 7.23931652 -4 5 C-3.34 5 -2.68 5 -2 5 C-1.7834375 4.0409375 -1.7834375 4.0409375 -1.5625 3.0625 C-1 1 -1 1 0 0 Z " fill="#5D5E59" transform="translate(148,61)"/>
<path d="M0 0 C1.9375 1.125 1.9375 1.125 3 3 C3.4375 6 3.4375 6 3 9 C0.75944941 11.58525068 -0.6770332 11.95386189 -4.0625 12.4375 C-7 12 -7 12 -8.9375 10.4375 C-10.44340212 6.98278337 -9.88313532 4.60047475 -9 1 C-5.95016004 -0.52491998 -3.3576631 -0.23562548 0 0 Z " fill="#F5BC2F" transform="translate(141,96)"/>
<path d="M0 0 C2 1.0625 2 1.0625 3 3 C2.875 6.5625 2.875 6.5625 2 10 C-1.46923881 12.31282587 -2.92205575 12.42478586 -7 12 C-8.875 10.875 -8.875 10.875 -10 9 C-10.38976435 5.88188517 -10.50422245 3.88980433 -8.9375 1.125 C-5.8930714 -0.64273274 -3.4368988 -0.36823916 0 0 Z " fill="#F4BC31" transform="translate(70,96)"/>
<path d="M0 0 C2 2 2 2 2.25 5.5 C2 9 2 9 0 11 C-1.875 11.265625 -1.875 11.265625 -4 11.25 C-4.70125 11.25515625 -5.4025 11.2603125 -6.125 11.265625 C-8 11 -8 11 -10 9 C-10.543379 3.02283105 -10.543379 3.02283105 -8.9375 0 C-5.80557344 -1.61647822 -3.32814714 -0.78665296 0 0 Z " fill="#F3BB2B" transform="translate(105,61)"/>
<path d="M0 0 C4.20658505 0.13569629 6.89695099 0.33817059 10.5 2.5 C12.77611702 6.29352837 12.85733353 9.69802282 12 14 C10.0625 17.0625 10.0625 17.0625 7 19 C3.91130061 19.55715593 1.07036121 19.68996881 -2 19 C-3.7734375 17.46875 -3.7734375 17.46875 -5 16 C-2.63386544 14.81693272 -1.13219264 14.86645392 1.5 14.875 C2.69109375 14.87113281 2.69109375 14.87113281 3.90625 14.8671875 C6 15 6 15 8 16 C7.67 15.401875 7.34 14.80375 7 14.1875 C6 12 6 12 6 9 C7.32 9 8.64 9 10 9 C10 8.34 10 7.68 10 7 C9.34 7 8.68 7 8 7 C7.67 5.68 7.34 4.36 7 3 C4.03 2.67 1.06 2.34 -2 2 C-1.34 1.34 -0.68 0.68 0 0 Z " fill="#F5BA2B" transform="translate(116,75)"/>
<path d="M0 0 C0.66 0 1.32 0 2 0 C2.2475 1.27875 2.495 2.5575 2.75 3.875 C3.52847216 7.1149343 3.52847216 7.1149343 5.75 9.5 C8.55138532 10.12253007 11.14013257 10.12999397 14 10 C13.01 11.485 13.01 11.485 12 13 C8.66666667 12.33333333 5.33333333 11.66666667 2 11 C1.67 12.32 1.34 13.64 1 15 C0.34 14.195625 -0.32 13.39125 -1 12.5625 C-4.87979228 9.24851076 -7.00014825 9.25422975 -12 9 C-12 8.34 -12 7.68 -12 7 C-6.555 6.505 -6.555 6.505 -1 6 C-0.67 4.02 -0.34 2.04 0 0 Z " fill="#FEF7D9" transform="translate(109,116)"/>
<path d="M0 0 C3 3 3 3 3.4375 6.375 C2.93570355 10.53274204 1.92413584 12.07586416 -1 15 C-3.32686453 16.16343227 -4.84721413 16.19895988 -7.4375 16.25 C-8.21996094 16.27578125 -9.00242187 16.3015625 -9.80859375 16.328125 C-12.50801348 15.92393381 -13.37459544 15.15326907 -15 13 C-15 12.34 -15 11.68 -15 11 C-14.34 11 -13.68 11 -13 11 C-13 10.34 -13 9.68 -13 9 C-12.01 9 -11.02 9 -10 9 C-9.67 9.99 -9.34 10.98 -9 12 C-9.33 12.33 -9.66 12.66 -10 13 C-7.03 13.495 -7.03 13.495 -4 14 C-4 12.35 -4 10.7 -4 9 C-2.35 9.33 -0.7 9.66 1 10 C0.67 6.7 0.34 3.4 0 0 Z " fill="#F4BB34" transform="translate(108,95)"/>
<path d="M0 0 C1.65 0 3.3 0 5 0 C5 0.99 5 1.98 5 3 C5.66 3 6.32 3 7 3 C7.33 2.01 7.66 1.02 8 0 C8.99 0 9.98 0 11 0 C11.6875 1.8125 11.6875 1.8125 12 4 C10.75 5.75 10.75 5.75 9 7 C8.01 7 7.02 7 6 7 C6 7.66 6 8.32 6 9 C3.625 9.1875 3.625 9.1875 1 9 C-1 6 -1 6 -0.625 2.8125 C-0.41875 1.884375 -0.2125 0.95625 0 0 Z " fill="#FBB912" transform="translate(77,116)"/>
<path d="M0 0 C2.86724686 0.57344937 3.8614515 0.8614515 6 3 C6.32464768 6.50619494 6.37612221 9.10670976 5 12.375 C2.4005307 14.48706881 0.31986461 14.97211356 -2.9921875 15.22265625 C-5 15 -5 15 -8 13 C-10.41600723 9.37598915 -10.41879914 7.27175119 -10 3 C-9.34 2.67 -8.68 2.34 -8 2 C-8.33 3.98 -8.66 5.96 -9 8 C-8.01 8 -7.02 8 -6 8 C-5.67 6.68 -5.34 5.36 -5 4 C-3.89155081 7.32534757 -4.15545644 9.62182575 -5 13 C-2.36 12.67 0.28 12.34 3 12 C3 11.01 3 10.02 3 9 C3.66 9 4.32 9 5 9 C4.4552207 5.1865449 2.7581556 3.58021008 0 1 C0 0.67 0 0.34 0 0 Z " fill="#F1BC3B" transform="translate(84,78)"/>
<path d="M0 0 C2.87029869 1.79393668 4.49131638 2.98263276 6 6 C6.04022391 8.3329866 6.04320247 10.66706666 6 13 C5.01 13.495 5.01 13.495 4 14 C3.97421875 13.38511719 3.9484375 12.77023438 3.921875 12.13671875 C3.66368084 7.17887428 3.66368084 7.17887428 1.375 2.9375 C-1.82789108 1.67320089 -4.59235886 1.80340532 -8 2 C-8.66 3.32 -9.32 4.64 -10 6 C-10.66 6 -11.32 6 -12 6 C-12 8.64 -12 11.28 -12 14 C-14 12 -14 12 -14.3125 9.1875 C-13.96477212 5.64067566 -13.10903783 3.83908938 -11 1 C-7.54260443 -0.72869779 -3.78024432 -0.48966895 0 0 Z " fill="#EFBF47" transform="translate(105,125)"/>
<path d="M0 0 C3 2.0625 3 2.0625 5 5 C5 8.6875 5 8.6875 4 12 C3.01 12.66 2.02 13.32 1 14 C1 10.37 1 6.74 1 3 C-1.97 3 -4.94 3 -8 3 C-8 6.63 -8 10.26 -8 14 C-11 11 -11 11 -11.4375 7.5625 C-11 4 -11 4 -9.4375 1.5625 C-6.01685857 -0.63021887 -3.99048721 -0.63007693 0 0 Z " fill="#EFBC3D" transform="translate(122,111)"/>
<path d="M0 0 C4.58940085 6.88410127 4.26977341 14.98173474 4 23 C2.05316677 19.39744879 0.72254681 15.60461063 -0.625 11.75 C-0.96917969 10.77546875 -0.96917969 10.77546875 -1.3203125 9.78125 C-1.88252463 8.18831562 -2.44158003 6.59426771 -3 5 C-2.01 4.67 -1.02 4.34 0 4 C0 2.68 0 1.36 0 0 Z " fill="#676766" transform="translate(156,75)"/>
<path d="M0 0 C0.66 0.33 1.32 0.66 2 1 C1.7525 2.03125 1.505 3.0625 1.25 4.125 C0.73958337 8.00014324 0.73958337 8.00014324 2.25 11.4375 C5.49941686 14.46536571 6.45375855 14.36946361 10.75 14.375 C12.50181351 14.27869612 14.25309636 14.16264275 16 14 C13.74681985 16.57311811 13.28380175 16.9678715 9.6875 17.375 C5.64924804 16.96433031 3.328368 16.32211721 0 14 C-2.37401233 9.4584112 -2.06403328 5.93324521 -1 1 C-0.67 0.67 -0.34 0.34 0 0 Z " fill="#FEF4CA" transform="translate(91,96)"/>
<path d="M0 0 C1.6254308 0.14095064 3.25034051 0.28792087 4.875 0.4375 C5.77992187 0.51871094 6.68484375 0.59992188 7.6171875 0.68359375 C10 1 10 1 12 2 C14.38569357 6.37377154 14.31349197 10.14087444 14 15 C13.01 16.485 13.01 16.485 12 18 C11.34 17.67 10.68 17.34 10 17 C10.33 16.34 10.66 15.68 11 15 C11.2352732 12.89145964 11.2352732 12.89145964 11.25 10.5625 C11.27578125 9.78003906 11.3015625 8.99757813 11.328125 8.19140625 C11.16595321 5.9482355 11.16595321 5.9482355 9.74609375 4.2890625 C7.75842606 2.82165682 6.21973339 2.32551695 3.8125 1.8125 C2.554375 1.544375 1.29625 1.27625 0 1 C0 0.67 0 0.34 0 0 Z " fill="#FDF3C9" transform="translate(116,74)"/>
<path d="M0 0 C2.33294775 -0.04241723 4.66702567 -0.04092937 7 0 C8 1 8 1 8.09765625 2.84765625 C8.04882812 5.92382812 8.04882812 5.92382812 8 9 C7.34 9 6.68 9 6 9 C4.21694476 6.36107824 3.00940379 4.02821137 2 1 C1.34 0.67 0.68 0.34 0 0 Z M3 6 C3.66 6 4.32 6 5 6 C4.67 6.99 4.34 7.98 4 9 C3.67 8.01 3.34 7.02 3 6 Z " fill="#F7BB20" transform="translate(134,96)"/>
<path d="M0 0 C-0.804375 0.3403125 -0.804375 0.3403125 -1.625 0.6875 C-4.88056206 2.4866264 -7.36213908 4.36213908 -10 7 C-10.96838142 10.67924984 -10.96838142 10.67924984 -11 14 C-11.66 13.34 -12.32 12.68 -13 12 C-12.92015309 7.76811367 -12.37025063 5.51181704 -9.875 2.0625 C-6.3303705 -0.48038638 -4.269321 -0.41856088 0 0 Z " fill="#F2BE43" transform="translate(104,92)"/>
<path d="M0 0 C0.66 0.33 1.32 0.66 2 1 C0.73034469 2.43854058 -0.54077218 3.87579127 -1.8125 5.3125 C-2.52019531 6.11300781 -3.22789063 6.91351563 -3.95703125 7.73828125 C-5.59337122 9.54983162 -7.25272168 11.29681703 -9 13 C-9 12.34 -9 11.68 -9 11 C-9.99 10.67 -10.98 10.34 -12 10 C-10.75160501 8.894019 -9.50120766 7.79029799 -8.25 6.6875 C-7.55390625 6.07261719 -6.8578125 5.45773438 -6.140625 4.82421875 C-4.14885494 3.12685266 -2.11101085 1.54522191 0 0 Z " fill="#616160" transform="translate(66,53)"/>
<path d="M0 0 C1.11375 0.309375 2.2275 0.61875 3.375 0.9375 C8.20509012 2.15800664 13.04290069 2.61399637 18 3 C17.34 4.32 16.68 5.64 16 7 C9.97229862 6.52412884 5.23321711 3.80277043 0 1 C0 0.67 0 0.34 0 0 Z " fill="#70706E" transform="translate(74,154)"/>
<path d="M0 0 C0.66 0 1.32 0 2 0 C2.48828125 1.98567708 2.9765625 3.97135417 3.46484375 5.95703125 C3.91010705 7.65683202 4.44433985 9.33301954 5 11 C5.66 11.33 6.32 11.66 7 12 C6.01 12.33 5.02 12.66 4 13 C3.67 13.99 3.34 14.98 3 16 C1.68 14.35 0.36 12.7 -1 11 C-0.34 10.67 0.32 10.34 1 10 C0.67 6.7 0.34 3.4 0 0 Z " fill="#FDF8D3" transform="translate(107,82)"/>
<path d="M0 0 C0.99 0.66 1.98 1.32 3 2 C2.125 8.875 2.125 8.875 1 10 C-0.99958364 10.04080783 -3.00045254 10.04254356 -5 10 C-5 9.01 -5 8.02 -5 7 C-3.68 7.33 -2.36 7.66 -1 8 C-1 7.01 -1 6.02 -1 5 C-0.34 5 0.32 5 1 5 C0.67 3.35 0.34 1.7 0 0 Z " fill="#F4BD35" transform="translate(70,97)"/>
<path d="M0 0 C0.66 0 1.32 0 2 0 C2.33 1.65 2.66 3.3 3 5 C2.34 5 1.68 5 1 5 C1 5.99 1 6.98 1 8 C-0.98 8 -2.96 8 -5 8 C-4.67 7.01 -4.34 6.02 -4 5 C-3.34 5 -2.68 5 -2 5 C-2 4.01 -2 3.02 -2 2 C-1.34 2 -0.68 2 0 2 C0 1.34 0 0.68 0 0 Z " fill="#FAB912" transform="translate(68,97)"/>
<path d="M0 0 C3 1 3 1 5 4 C5.125 6.6875 5.125 6.6875 5 9 C4.01 9.495 4.01 9.495 3 10 C2.731875 9.195625 2.46375 8.39125 2.1875 7.5625 C1.795625 6.716875 1.40375 5.87125 1 5 C0.01 4.67 -0.98 4.34 -2 4 C-1.34 2.68 -0.68 1.36 0 0 Z " fill="#60605D" transform="translate(164,129)"/>
<path d="M0 0 C2.475 0.99 2.475 0.99 5 2 C5 2.66 5 3.32 5 4 C6.65 4 8.3 4 10 4 C10.33 3.01 10.66 2.02 11 1 C12.32 1 13.64 1 15 1 C15 1.66 15 2.32 15 3 C11.35042135 5.33573034 8.26089509 5.45652447 4 5 C1.5625 3.0625 1.5625 3.0625 0 1 C0 0.67 0 0.34 0 0 Z " fill="#F0BF40" transform="translate(93,139)"/>
<path d="M0 0 C0.33 0 0.66 0 1 0 C1.85298376 3.67387495 2.10789471 7.0447393 2.0625 10.8125 C2.05347656 11.78832031 2.04445312 12.76414062 2.03515625 13.76953125 C2.02355469 14.50558594 2.01195312 15.24164063 2 16 C-0.09970981 12.0828943 -0.99334562 8.31423304 -2 4 C-1.34 4 -0.68 4 0 4 C0 2.68 0 1.36 0 0 Z " fill="#7A7A77" transform="translate(158,82)"/>
<path d="M0 0 C0.66 0 1.32 0 2 0 C4 3 4 3 3.6875 5.5625 C3 8 3 8 2 10 C1.34 10 0.68 10 0 10 C0 10.66 0 11.32 0 12 C-0.99 11.67 -1.98 11.34 -3 11 C-2.34 11 -1.68 11 -1 11 C-0.08307039 8.24921116 0.10886083 6.64051087 0.0625 3.8125 C0.041875 2.554375 0.02125 1.29625 0 0 Z " fill="#FCF6D0" transform="translate(89,114)"/>
<path d="M0 0 C1.98 0.99 1.98 0.99 4 2 C4 4.97 4 7.94 4 11 C2.68 10.67 1.36 10.34 0 10 C0.33 9.67 0.66 9.34 1 9 C1.30523962 4.34911285 1.30523962 4.34911285 0 0 Z " fill="#FEF2C9" transform="translate(105,61)"/>
<path d="M0 0 C0.66 0 1.32 0 2 0 C2.66 2.31 3.32 4.62 4 7 C6.31 7.33 8.62 7.66 11 8 C11 8.33 11 8.66 11 9 C8.03 9 5.06 9 2 9 C0.11656068 5.23312136 -0.22057835 3.97041037 0 0 Z " fill="#FCEDBC" transform="translate(93,64)"/>
<path d="M0 0 C2.31 0.33 4.62 0.66 7 1 C7 1.66 7 2.32 7 3 C8.65 3 10.3 3 12 3 C12 3.33 12 3.66 12 4 C10.56344146 4.08131463 9.1255517 4.13933559 7.6875 4.1875 C6.48673828 4.23970703 6.48673828 4.23970703 5.26171875 4.29296875 C2.51075586 3.93662641 1.67775411 3.15556111 0 1 C0 0.67 0 0.34 0 0 Z " fill="#F0BC35" transform="translate(111,90)"/>
<path d="M0 0 C0.99 0 1.98 0 3 0 C3 4.29 3 8.58 3 13 C1.68 12.67 0.36 12.34 -1 12 C-0.34 11.01 0.32 10.02 1 9 C1.34222445 4.34582831 1.34222445 4.34582831 0 0 Z " fill="#FEF7CE" transform="translate(88,79)"/>
<path d="M0 0 C3.3 0 6.6 0 10 0 C10 0.99 10 1.98 10 3 C6.7 2.67 3.4 2.34 0 2 C0 1.34 0 0.68 0 0 Z " fill="#FEF2BF" transform="translate(97,123)"/>
<path d="M0 0 C1.875 0.3125 1.875 0.3125 4 1 C4.66 1.99 5.32 2.98 6 4 C3.69 4 1.38 4 -1 4 C-0.67 2.68 -0.34 1.36 0 0 Z " fill="#FDF6DA" transform="translate(135,92)"/>
<path d="M0 0 C0.66 0 1.32 0 2 0 C1.67 1.65 1.34 3.3 1 5 C-0.65 5 -2.3 5 -4 5 C-4 4.34 -4 3.68 -4 3 C-3.01 3 -2.02 3 -1 3 C-0.67 2.01 -0.34 1.02 0 0 Z " fill="#F6B825" transform="translate(87,120)"/>
<path d="M0 0 C0.66 0 1.32 0 2 0 C2.33 1.65 2.66 3.3 3 5 C1.35 5 -0.3 5 -2 5 C-1.34 3.35 -0.68 1.7 0 0 Z " fill="#FAB918" transform="translate(102,66)"/>
<path d="M0 0 C0.33 0.99 0.66 1.98 1 3 C0.34 3.66 -0.32 4.32 -1 5 C-1 4.34 -1 3.68 -1 3 C-3.64 3 -6.28 3 -9 3 C-8.67 2.34 -8.34 1.68 -8 1 C-7.05125 1.020625 -6.1025 1.04125 -5.125 1.0625 C-2.09333717 1.22551826 -2.09333717 1.22551826 0 0 Z " fill="#FEF4CF" transform="translate(71,106)"/>
</svg>
