<?xml version="1.0" encoding="UTF-8"?>
<svg version="1.1" xmlns="http://www.w3.org/2000/svg" width="222" height="227">
<path d="M0 0 C73.26 0 146.52 0 222 0 C222 74.91 222 149.82 222 227 C148.74 227 75.48 227 0 227 C0 152.09 0 77.18 0 0 Z " fill="#FDFEFF" transform="translate(0,0)"/>
<path d="M0 0 C1.5753613 1.33918273 3.13899254 2.69235466 4.6875 4.0625 C5.31269531 4.58199219 5.93789062 5.10148437 6.58203125 5.63671875 C14.52707856 12.75677243 20.09325791 23.81417175 22.6875 34.0625 C22.85733398 34.67303223 23.02716797 35.28356445 23.20214844 35.91259766 C24.0521805 39.67788052 23.95555663 43.46666711 24 47.3125 C24.02900391 48.13363281 24.05800781 48.95476562 24.08789062 49.80078125 C24.14884254 55.7178059 23.02950003 60.12785096 19.6875 65.0625 C14.51143185 69.98607702 10.15917854 70.21670461 3.28808594 70.23950195 C2.43082413 70.24607315 1.57356232 70.25264435 0.69032288 70.25941467 C-2.14916064 70.27913892 -4.98859128 70.29080867 -7.828125 70.30078125 C-9.28373966 70.30689454 -9.28373966 70.30689454 -10.76876068 70.31313133 C-15.90557136 70.33398888 -21.04235536 70.34829167 -26.17919922 70.35766602 C-31.47983562 70.36872655 -36.78005178 70.40312337 -42.0805397 70.44283772 C-46.16069306 70.46900729 -50.24074636 70.47735819 -54.32097626 70.48094749 C-56.27456244 70.48581297 -58.22814417 70.49742585 -60.18164825 70.51598549 C-62.91993826 70.54038291 -65.65714196 70.53941079 -68.39550781 70.5324707 C-69.19784348 70.54528076 -70.00017914 70.55809082 -70.826828 70.57128906 C-76.43183103 70.51968092 -79.70521511 69.29612157 -84.3125 66.0625 C-87.01578624 62.05117203 -88.0136114 58.870121 -87.3125 54.0625 C-85.01180489 49.26938518 -82.39552497 47.11064151 -77.75491333 44.89871216 C-73.01442893 43.27570648 -68.15024356 43.40188381 -63.18359375 43.33984375 C-62.03512466 43.30822647 -60.88665558 43.27660919 -59.7033844 43.24403381 C-56.05243683 43.14488506 -52.40161213 43.07012599 -48.75 43 C-45.09494054 42.92461064 -41.44042384 42.84350323 -37.78590393 42.74525452 C-35.51794965 42.68465671 -33.24959522 42.63718766 -30.98106384 42.60472107 C-25.04193386 42.45029993 -20.52884285 42.00775738 -15.3125 39.0625 C-13.68226186 35.80202371 -13.8451465 33.68448965 -14.3125 30.0625 C-19.41010796 21.00202557 -29.25923481 17.09971429 -38.8125 14.421875 C-45.7626185 12.75945782 -52.50348353 12.56543516 -59.625 12.625 C-60.90375 12.63329834 -62.1825 12.64159668 -63.5 12.65014648 C-80.31341464 12.95115117 -95.25750194 17.06180389 -107.8125 28.875 C-112.12336439 33.47278881 -115.04232913 38.19789191 -117.3125 44.0625 C-117.67730469 44.97 -118.04210937 45.8775 -118.41796875 46.8125 C-119.53908581 50.8857288 -119.65584804 54.60747109 -119.625 58.8125 C-119.61936035 59.61091309 -119.6137207 60.40932617 -119.60791016 61.23193359 C-119.41746419 70.50344665 -117.65175069 77.18065652 -111.6171875 84.37109375 C-110.3125 86.0625 -110.3125 86.0625 -109.3125 89.0625 C-107.47223807 90.12888383 -107.47223807 90.12888383 -105.3125 91.0625 C-103.92573763 91.98251161 -102.55133098 92.92132483 -101.1875 93.875 C-82.34352592 106.48880024 -60.46953529 109.66492468 -38.25 109.5 C-37.4521106 109.49895264 -36.65422119 109.49790527 -35.83215332 109.49682617 C-23.67397616 109.46409238 -12.06763673 108.4377328 -0.140625 105.9375 C5.64185624 104.77025586 11.41243608 103.70714277 16.625 106.8125 C19.06900302 109.47868511 20.53262158 111.56805908 20.91015625 115.2109375 C20.85730469 115.94570312 20.80445313 116.68046875 20.75 117.4375 C20.72035156 118.16710937 20.69070312 118.89671875 20.66015625 119.6484375 C18.84068616 124.16423073 14.93979214 126.98276141 10.61987305 129.05371094 C8.43222241 129.87655422 6.2401267 130.58359527 4 131.25 C2.81361938 131.6227002 2.81361938 131.6227002 1.60327148 132.00292969 C-4.64204715 133.93668515 -10.9206783 135.68098234 -17.3125 137.0625 C-18.18648437 137.25585938 -19.06046875 137.44921875 -19.9609375 137.6484375 C-56.16412355 144.97400887 -99.15537134 140.7995915 -130.59960938 120.27099609 C-143.59814508 111.10013638 -153.03197723 99.08398711 -158.3125 84.0625 C-158.6321875 83.24910156 -158.951875 82.43570313 -159.28125 81.59765625 C-165.22181466 64.18850147 -161.45949945 44.00860413 -153.75 27.8125 C-149.80450152 20.03843463 -144.55436353 14.0731834 -138.3125 8.0625 C-137.36310547 7.08410156 -137.36310547 7.08410156 -136.39453125 6.0859375 C-103.7631952 -25.46489074 -35.42368252 -27.59318428 0 0 Z " fill="#01AAFF" transform="translate(179.3125,85.9375)"/>
<path d="M0 0 C73.26 0 146.52 0 222 0 C222 10.89 222 21.78 222 33 C218.7 32.01 215.4 31.02 212 30 C178.82867927 21.2727428 145.85684712 17.57131919 111.5625 17.6875 C110.43613129 17.68932281 109.30976257 17.69114563 108.14926147 17.69302368 C80.57483747 17.76775112 53.92968671 19.66875688 27 26 C26.030625 26.22510254 25.06125 26.45020508 24.0625 26.68212891 C19.66159516 27.71359098 15.26697996 28.77062801 10.88671875 29.88671875 C10.22889404 30.05389404 9.57106934 30.22106934 8.89331055 30.39331055 C6.92618381 30.96488539 6.92618381 30.96488539 4.94458008 32.06958008 C3 33 3 33 0 33 C0 22.11 0 11.22 0 0 Z " fill="#FBFDFF" transform="translate(0,0)"/>
<path d="M0 0 C-4.49999525 1.42052555 -8.00111603 0.08350678 -12.375 -1.25 C-14.01089235 -1.72421433 -15.64762259 -2.19554727 -17.28515625 -2.6640625 C-18.09098145 -2.89512695 -18.89680664 -3.12619141 -19.72705078 -3.36425781 C-47.67399752 -11.1809978 -77.59672786 -12.41020544 -106.4375 -12.3125 C-107.56386871 -12.31067719 -108.69023743 -12.30885437 -109.85073853 -12.30697632 C-142.37037673 -12.21884722 -173.42896516 -9.02420804 -204.8996582 -0.43603516 C-210.684709 1.105097 -210.684709 1.105097 -214 0 C-195.11048121 -11.71555147 -173.84324381 -20.68497485 -152 -25 C-151.06446289 -25.19174805 -150.12892578 -25.38349609 -149.16503906 -25.58105469 C-99.14977845 -35.45524302 -43.22511393 -28.07308474 0 0 Z " fill="#04AAFF" transform="translate(218,30)"/>
</svg>
