<?xml version="1.0" encoding="UTF-8"?>
<svg version="1.1" xmlns="http://www.w3.org/2000/svg" width="200" height="200">
<path d="M0 0 C66 0 132 0 200 0 C200 66 200 132 200 200 C134 200 68 200 0 200 C0 134 0 68 0 0 Z " fill="#1C80F1" transform="translate(0,0)"/>
<path d="M0 0 C1.92453003 0.00628418 1.92453003 0.00628418 3.88793945 0.01269531 C33.79305693 0.36846081 33.79305693 0.36846081 42.96565247 9.36244202 C45.42899773 13.16846017 45.45908173 16.3813369 45.44018555 20.77124023 C45.45792778 22.03071976 45.45792778 22.03071976 45.47602844 23.31564331 C45.50886017 26.0843943 45.51187249 28.85216107 45.51171875 31.62109375 C45.52203558 33.55013937 45.53309892 35.47918113 45.5448761 37.40821838 C45.5643 41.44908755 45.56773239 45.48961065 45.5612793 49.53051758 C45.55528025 54.70393156 45.59953317 59.8755531 45.65716839 65.04859829 C45.69417066 69.03185765 45.69907 73.01468485 45.69489479 76.99809456 C45.69776487 78.90508034 45.7118254 80.81208386 45.73737144 82.71890068 C45.76938277 85.38861846 45.75678431 88.05463754 45.7331543 90.72436523 C45.75203705 91.50845261 45.7709198 92.29253998 45.79037476 93.10038757 C45.72029306 96.43562554 45.54397457 98.50030875 43.38109779 101.12622261 C39.52016923 104.54882199 35.99448375 106.33373418 30.9375 107.625 C29.22240234 108.08326172 29.22240234 108.08326172 27.47265625 108.55078125 C8.08531684 112.65559253 -18.28299118 113.76630207 -36.1875 103.875 C-39.125 101.3125 -39.125 101.3125 -39.99536133 98.94384766 C-40.16502605 95.50006919 -39.21911535 94.35951928 -37.13671875 91.6484375 C-36.48751465 90.77928711 -35.83831055 89.91013672 -35.16943359 89.01464844 C-34.49477051 88.12293945 -33.82010742 87.23123047 -33.125 86.3125 C-31.91450181 84.58155543 -30.71251505 82.84462434 -29.51953125 81.1015625 C-28.32552083 79.38020833 -27.13151042 77.65885417 -25.9375 75.9375 C-25.33486328 75.06222656 -24.73222656 74.18695313 -24.11132812 73.28515625 C-23.52416016 72.44082031 -22.93699219 71.59648438 -22.33203125 70.7265625 C-21.8110083 69.9732666 -21.28998535 69.2199707 -20.75317383 68.44384766 C-19.03712295 66.19746526 -17.16424321 64.26625601 -15.125 62.3125 C-14.49932129 62.73660156 -13.87364258 63.16070312 -13.22900391 63.59765625 C-10.40586556 65.50738001 -7.5780201 67.41001375 -4.75 69.3125 C-3.76515625 69.98023437 -2.7803125 70.64796875 -1.765625 71.3359375 C-0.82460937 71.96757813 0.11640625 72.59921875 1.0859375 73.25 C1.95524902 73.83652344 2.82456055 74.42304687 3.72021484 75.02734375 C5.74312732 76.48324432 5.74312732 76.48324432 7.875 76.3125 C9.60877279 74.01303415 11.22148901 71.7085311 12.8125 69.3125 C13.29468994 68.60222656 13.77687988 67.89195313 14.27368164 67.16015625 C16.85243683 63.358215 19.38975785 59.53086983 21.90625 55.6875 C22.39359619 54.95402344 22.88094238 54.22054687 23.38305664 53.46484375 C24.32387869 52.04822767 25.25313218 50.62384874 26.16967773 49.19140625 C27.46484375 47.25 27.46484375 47.25 29.875 44.3125 C33.875 44.3125 33.875 44.3125 35.875 45.3125 C35.875 40.3625 35.875 35.4125 35.875 30.3125 C33.750625 31.116875 31.62625 31.92125 29.4375 32.75 C28.24253906 33.20246094 27.04757813 33.65492187 25.81640625 34.12109375 C23.03054277 35.0269826 23.03054277 35.0269826 21.875 36.3125 C22.535 36.6425 23.195 36.9725 23.875 37.3125 C21.92591616 47.75573934 12.04640278 57.80664305 5.875 66.3125 C1.1547832 64.71180991 -2.61883457 62.11295802 -6.6875 59.3125 C-7.99983509 58.414519 -9.31359615 57.51861772 -10.62890625 56.625 C-11.20455322 56.22925781 -11.7802002 55.83351562 -12.37329102 55.42578125 C-14.23353976 54.24351863 -16.13920535 53.26607331 -18.125 52.3125 C-25.40093346 62.48157113 -32.47769524 72.72045631 -39.125 83.3125 C-50.64591049 81.48378405 -58.21579091 75.62773955 -65.125 66.3125 C-69.34451598 58.99769893 -70.01107966 50.57570798 -69.125 42.3125 C-66.89427392 34.95318872 -62.49367353 29.55828236 -56.125 25.3125 C-52.38578112 23.46430998 -49.46407544 23.08746204 -45.3125 23.1875 C-43.84876953 23.21457031 -43.84876953 23.21457031 -42.35546875 23.2421875 C-41.61941406 23.26539062 -40.88335937 23.28859375 -40.125 23.3125 C-40.20621094 22.51585938 -40.28742187 21.71921875 -40.37109375 20.8984375 C-40.87003446 12.52845247 -40.87003446 12.52845247 -38.8828125 9.28515625 C-28.82292008 0.17562233 -12.72424268 -0.05640105 0 0 Z " fill="#F7FCFD" transform="translate(104.125,44.6875)"/>
<path d="M0 0 C0 4.95 0 9.9 0 15 C-1.65 14.67 -3.3 14.34 -5 14 C-10.23829807 21.40981072 -15.36074885 28.89687176 -20.4675293 36.39770508 C-21.00933838 37.19200928 -21.55114746 37.98631348 -22.109375 38.8046875 C-22.59374023 39.51608887 -23.07810547 40.22749023 -23.57714844 40.96044922 C-25.00681707 43.00977176 -26.48916754 45.00997308 -28 47 C-32.06454324 45.55582163 -35.32775306 43.56661153 -38.875 41.125 C-43.15330421 38.18715664 -47.47391851 35.52961446 -52 33 C-54.21007242 36.14461474 -56.41772942 39.2909181 -58.625 42.4375 C-59.24246094 43.31599609 -59.85992187 44.19449219 -60.49609375 45.09960938 C-64.41001864 50.68210224 -68.24707987 56.30798413 -72 62 C-72.66 61.01 -73.32 60.02 -74 59 C-73.67 58.01 -73.34 57.02 -73 56 C-71.515 56.495 -71.515 56.495 -70 57 C-70 56.236875 -70 55.47375 -70 54.6875 C-70 52.79166667 -70 50.89583333 -70 49 C-71.485 49.495 -71.485 49.495 -73 50 C-72.67 50.99 -72.34 51.98 -72 53 C-75 55 -75 55 -77.91796875 54.5390625 C-78.99691406 54.23742187 -80.07585937 53.93578125 -81.1875 53.625 C-82.27417969 53.32851562 -83.36085938 53.03203125 -84.48046875 52.7265625 C-85.31191406 52.48679688 -86.14335938 52.24703125 -87 52 C-87 51.34 -87 50.68 -87 50 C-87.66 50 -88.32 50 -89 50 C-88.67 49.34 -88.34 48.68 -88 48 C-83.71 49.65 -79.42 51.3 -75 53 C-74.34 51.35 -73.68 49.7 -73 48 C-72.10113984 46.51807303 -71.15612113 45.06336401 -70.171875 43.63671875 C-69.61886719 42.83169922 -69.06585938 42.02667969 -68.49609375 41.19726562 C-67.63177734 39.95493164 -67.63177734 39.95493164 -66.75 38.6875 C-66.18925781 37.87087891 -65.62851563 37.05425781 -65.05078125 36.21289062 C-61.48707412 31.04839588 -57.80567321 25.98868108 -54 21 C-47.72166263 24.27915391 -42.10343484 28.01150457 -36.48046875 32.328125 C-34.1559147 33.89491104 -32.67678527 34.42617545 -30 35 C-27.93069175 32.02551111 -25.87086223 29.04457171 -23.8125 26.0625 C-23.23435547 25.23169922 -22.65621094 24.40089844 -22.06054688 23.54492188 C-18.37178804 18.18892741 -15.04095831 12.74905379 -12 7 C-12.99 6.67 -13.98 6.34 -15 6 C-10.8310781 2.35219334 -5.55196264 0 0 0 Z " fill="#2381EC" transform="translate(140,75)"/>
<path d="M0 0 C2.09769828 0.00315845 4.19397895 -0.02037404 6.29150391 -0.0456543 C16.79814895 -0.09464011 26.99052525 0.92428263 36.23291016 6.31567383 C35.90291016 7.30567383 35.57291016 8.29567383 35.23291016 9.31567383 C24.99443791 14.05570728 14.12054501 14.68110109 2.98291016 14.62817383 C1.79866455 14.62470947 0.61441895 14.62124512 -0.60571289 14.61767578 C-11.73499109 14.47967487 -21.79674552 13.63617147 -31.76708984 8.31567383 C-30.76708984 5.31567383 -30.76708984 5.31567383 -27.82958984 3.75317383 C-18.79115929 0.27641881 -9.58433541 -0.03009735 0 0 Z " fill="#2381EC" transform="translate(103.76708984375,54.684326171875)"/>
<path d="M0 0 C0 12.21 0 24.42 0 37 C-7.01613007 34.66128998 -11.85158772 32.22261842 -16 26 C-18.56078278 20.62235617 -18.713039 14.84344156 -18 9 C-13.63941688 0.27883376 -9.97541396 0 0 0 Z " fill="#1C7FF1" transform="translate(64,79)"/>
<path d="M0 0 C3.3 0 6.6 0 10 0 C10 12.21 10 24.42 10 37 C3.92817964 34.97605988 -0.41080383 33.38379426 -4 28 C-2.68 28.33 -1.36 28.66 0 29 C0 28.34 0 27.68 0 27 C1.65 27 3.3 27 5 27 C8.35905786 21.57867874 8.53299582 16.81399609 8.6875 10.625 C8.72166016 9.69816406 8.75582031 8.77132812 8.79101562 7.81640625 C8.87298507 5.54468156 8.93818151 3.27236233 9 1 C6.03 1 3.06 1 0 1 C0 0.67 0 0.34 0 0 Z " fill="#3386E5" transform="translate(54,79)"/>
<path d="M0 0 C3.375 -0.125 3.375 -0.125 7 0 C9.63061098 2.63061098 9.23617047 4.50727974 9.24884033 8.08728027 C9.24164978 8.94035767 9.23445923 9.79343506 9.22705078 10.67236328 C9.22734283 11.56998383 9.22763489 12.46760437 9.22793579 13.39242554 C9.22653903 16.36848515 9.21096156 19.34429645 9.1953125 22.3203125 C9.1915836 24.38011539 9.18873605 26.43992005 9.18673706 28.49972534 C9.1790909 33.9282112 9.15943399 39.3565905 9.1373291 44.78503418 C9.1168918 50.32151854 9.10773988 55.85802007 9.09765625 61.39453125 C9.07618902 72.26306772 9.04204126 83.13152501 9 94 C8.67 94 8.34 94 8 94 C7.99857498 92.92116043 7.99714996 91.84232086 7.99568176 90.73078918 C7.97901164 80.56328423 7.93623754 70.3961795 7.86790943 60.2288866 C7.83361983 55.00173518 7.80852637 49.77487664 7.80444336 44.54760742 C7.80016467 39.50285619 7.77173742 34.45876586 7.72656822 29.41422081 C7.71357951 27.48975156 7.70929039 25.56520326 7.71384621 23.64069557 C7.71874247 20.94438966 7.69270427 18.25002264 7.65942383 15.55395508 C7.66804947 14.75841721 7.67667511 13.96287933 7.68556213 13.14323425 C7.60153488 9.08186144 7.21392311 7.25760774 4.58378601 4.09037781 C3.73113663 3.40055313 2.87848724 2.71072845 2 2 C1.34 1.34 0.68 0.68 0 0 Z " fill="#2A7BD8" transform="translate(141,50)"/>
<path d="M0 0 C1.76730469 0.0009668 1.76730469 0.0009668 3.5703125 0.00195312 C12.2183689 0.04668445 12.2183689 0.04668445 14.5 1.1875 C16.24766859 1.34170605 17.99842223 1.46199964 19.75 1.5625 C24.2835155 1.93731821 27.6265718 2.63919198 31.5 5.1875 C31.995 6.1775 31.995 6.1775 32.5 7.1875 C31.10587891 6.88005859 31.10587891 6.88005859 29.68359375 6.56640625 C27.82927734 6.16228516 27.82927734 6.16228516 25.9375 5.75 C24.71933594 5.48316406 23.50117188 5.21632813 22.24609375 4.94140625 C16.40229414 3.76533396 10.78839102 3.0607228 4.82421875 3.0546875 C3.58349609 3.05339844 2.34277344 3.05210938 1.06445312 3.05078125 C-0.21494141 3.05464844 -1.49433594 3.05851562 -2.8125 3.0625 C-4.08029297 3.05863281 -5.34808594 3.05476563 -6.65429688 3.05078125 C-13.6658942 3.05804339 -20.54241458 3.2950588 -27.5 4.1875 C-18.98322726 -0.40726513 -9.43761823 -0.10073862 0 0 Z " fill="#317EDA" transform="translate(107.5,42.8125)"/>
<path d="M0 0 C1 3 1 3 0.22265625 4.97265625 C-0.35162109 6.00712891 -0.35162109 6.00712891 -0.9375 7.0625 C-2.57217278 9.87126501 -2.57217278 9.87126501 -3 13 C-2.01 13.33 -1.02 13.66 0 14 C-1.38264837 16.86867231 -2.92148553 19.56024032 -4.625 22.25 C-5.07101563 22.95640625 -5.51703125 23.6628125 -5.9765625 24.390625 C-6.48316406 25.18726563 -6.48316406 25.18726563 -7 26 C-7.66 25.01 -8.32 24.02 -9 23 C-8.67 22.01 -8.34 21.02 -8 20 C-7.01 20.33 -6.02 20.66 -5 21 C-5 20.236875 -5 19.47375 -5 18.6875 C-5 16.79166667 -5 14.89583333 -5 13 C-5.99 13.33 -6.98 13.66 -8 14 C-7.67 14.99 -7.34 15.98 -7 17 C-10 19 -10 19 -12.91796875 18.5390625 C-13.99691406 18.23742187 -15.07585938 17.93578125 -16.1875 17.625 C-17.27417969 17.32851562 -18.36085938 17.03203125 -19.48046875 16.7265625 C-20.31191406 16.48679687 -21.14335938 16.24703125 -22 16 C-22 15.34 -22 14.68 -22 14 C-22.66 14 -23.32 14 -24 14 C-23.67 13.34 -23.34 12.68 -23 12 C-18.71 13.65 -14.42 15.3 -10 17 C-9.34 15.35 -8.68 13.7 -8 12 C-6.66803958 9.8683284 -5.29029027 7.76478087 -3.875 5.6875 C-3.15054688 4.61886719 -2.42609375 3.55023438 -1.6796875 2.44921875 C-1.12539062 1.64097656 -0.57109375 0.83273438 0 0 Z " fill="#3184E4" transform="translate(75,111)"/>
<path d="M0 0 C0.66 0 1.32 0 2 0 C2.33 1.98 2.66 3.96 3 6 C2.67 5.34 2.34 4.68 2 4 C1.34 4 0.68 4 0 4 C0.33 5.98 0.66 7.96 1 10 C0.01 10.33 -0.98 10.66 -2 11 C-2.33 11.99 -2.66 12.98 -3 14 C-3.99 14 -4.98 14 -6 14 C-6 13.34 -6 12.68 -6 12 C-6.66 12 -7.32 12 -8 12 C-8.33 10.68 -8.66 9.36 -9 8 C-9.99 8.33 -10.98 8.66 -12 9 C-12 8.01 -12 7.02 -12 6 C-8.7 6 -5.4 6 -2 6 C-2 4.68 -2 3.36 -2 2 C-1.34 2 -0.68 2 0 2 C0 1.34 0 0.68 0 0 Z " fill="#1C7FF0" transform="translate(114,106)"/>
<path d="M0 0 C0.99 0.33 1.98 0.66 3 1 C2.67 2.32 2.34 3.64 2 5 C1.34 5 0.68 5 0 5 C0 6.32 0 7.64 0 9 C-0.66 9 -1.32 9 -2 9 C-2 10.32 -2 11.64 -2 13 C-2.99 13.495 -2.99 13.495 -4 14 C-4.65213292 16.02463255 -4.65213292 16.02463255 -5 18 C-3.68 18.33 -2.36 18.66 -1 19 C-1.99 21.475 -1.99 21.475 -3 24 C-3.66 23.01 -4.32 22.02 -5 21 C-5.98095748 19.98131338 -6.97702078 18.97648017 -8 18 C-7.67 19.32 -7.34 20.64 -7 22 C-8.65 22.33 -10.3 22.66 -12 23 C-9.62634545 18.54560997 -7.24199757 14.19865267 -4.25 10.125 C-1.89499568 7.18113779 -1.89499568 7.18113779 -1 4 C-1.99 3.67 -2.98 3.34 -4 3 C-2.1875 1.4375 -2.1875 1.4375 0 0 Z " fill="#3485E2" transform="translate(129,78)"/>
<path d="M0 0 C0.99 0.33 1.98 0.66 3 1 C3.33 1.99 3.66 2.98 4 4 C2.21653709 7.03188696 1.40424844 7.86525052 -2 9 C-3.60374593 10.9843683 -4.98314988 13.06817049 -6.40234375 15.1875 C-8.22688451 17.25739465 -9.31111552 17.62831834 -12 18 C-8.35459694 11.69164293 -4.51018641 5.72569764 0 0 Z " fill="#F4FDFE" transform="translate(135,88)"/>
<path d="M0 0 C5 2 5 2 10 4 C10.66 3.34 11.32 2.68 12 2 C12 3.32 12 4.64 12 6 C8.7 6 5.4 6 2 6 C2 6.99 2 7.98 2 9 C3.32 8.34 4.64 7.68 6 7 C6.33 7.66 6.66 8.32 7 9 C6.67 9.99 6.34 10.98 6 12 C6.66 12 7.32 12 8 12 C7.67 12.66 7.34 13.32 7 14 C3.04 11.36 -0.92 8.72 -5 6 C-2.39902318 4.69951159 0.13955062 4.43528578 3 4 C2.01 3.34 1.02 2.68 0 2 C0 1.34 0 0.68 0 0 Z " fill="#3A88E4" transform="translate(100,106)"/>
<path d="M0 0 C1.32 0.33 2.64 0.66 4 1 C3.35546875 1.53109375 2.7109375 2.0621875 2.046875 2.609375 C-0.51782225 5.60478476 -0.58073139 7.35682203 -0.75 11.25 C-0.80671875 12.32765625 -0.8634375 13.4053125 -0.921875 14.515625 C-0.94765625 15.33546875 -0.9734375 16.1553125 -1 17 C-1.70125 17.02578125 -2.4025 17.0515625 -3.125 17.078125 C-11.1723076 17.55921404 -16.37061532 19.58041021 -23 24 C-23 22.35 -23 20.7 -23 19 C-19.04 18.505 -19.04 18.505 -15 18 C-15 17.34 -15 16.68 -15 16 C-10.71 16 -6.42 16 -2 16 C-2 11.71 -2 7.42 -2 3 C-1.34 3 -0.68 3 0 3 C0 2.01 0 1.02 0 0 Z " fill="#418CE2" transform="translate(65,51)"/>
<path d="M0 0 C0 4.95 0 9.9 0 15 C-1.65 14.67 -3.3 14.34 -5 14 C-5.99 14.495 -5.99 14.495 -7 15 C-7.33 13.35 -7.66 11.7 -8 10 C-7.01 10 -6.02 10 -5 10 C-5 10.66 -5 11.32 -5 12 C-4.01 12 -3.02 12 -2 12 C-2 8.7 -2 5.4 -2 2 C-3.98 2.33 -5.96 2.66 -8 3 C-3.5 0 -3.5 0 0 0 Z " fill="#428CE3" transform="translate(140,75)"/>
<path d="M0 0 C0.33 0.66 0.66 1.32 1 2 C0.328125 3.76953125 0.328125 3.76953125 -0.75 5.8125 C-1.11867188 6.52535156 -1.48734375 7.23820313 -1.8671875 7.97265625 C-3 10 -3 10 -4.875 12.75 C-5.24625 13.4925 -5.6175 14.235 -6 15 C-5.30859649 17.30287793 -5.30859649 17.30287793 -4 19 C-3.34 19 -2.68 19 -2 19 C-2 19.66 -2 20.32 -2 21 C-5.65316671 19.75023244 -6.78065836 19.32901247 -9 16 C-8.72934022 11.98375813 -6.14871803 8.97908029 -3.9375 5.75 C-3.20402344 4.67234375 -2.47054687 3.5946875 -1.71484375 2.484375 C-1.14894531 1.66453125 -0.58304688 0.8446875 0 0 Z " fill="#D3EDFE" transform="translate(73,128)"/>
<path d="M0 0 C0.66 1.32 1.32 2.64 2 4 C0.35 4.33 -1.3 4.66 -3 5 C-2.95875 5.845625 -2.9175 6.69125 -2.875 7.5625 C-3.01535028 11.42213269 -3.82780164 14.33688013 -5 18 C-4.34 18 -3.68 18 -3 18 C-2.67 20.64 -2.34 23.28 -2 26 C-4 25 -4 25 -5.125 22.625 C-6.41024156 17.30042782 -7.35471478 11.22703284 -5.171875 6.02734375 C-3.68546147 3.76999185 -1.90703427 1.90703427 0 0 Z " fill="#4189E2" transform="translate(52,80)"/>
<path d="M0 0 C-1.76858691 0.67260351 -3.53996016 1.33788395 -5.3125 2 C-6.29863281 2.37125 -7.28476563 2.7425 -8.30078125 3.125 C-11 4 -11 4 -14 4 C-14 4.66 -14 5.32 -14 6 C-12.02 6 -10.04 6 -8 6 C-8 6.66 -8 7.32 -8 8 C-5.03 8.495 -5.03 8.495 -2 9 C-5.42943519 10.18771723 -7.37784675 9.80226223 -10.75 8.5625 C-11.54921875 8.27503906 -12.3484375 7.98757812 -13.171875 7.69140625 C-13.77515625 7.46324219 -14.3784375 7.23507813 -15 7 C-15 5.68 -15 4.36 -15 3 C-4.8 -1.6 -4.8 -1.6 0 0 Z " fill="#5293DF" transform="translate(88,57)"/>
<path d="M0 0 C1.65 0.99 3.3 1.98 5 3 C2.50907189 4.24546405 1.58919267 3.7767578 -1 3 C-1.12375 3.61875 -1.2475 4.2375 -1.375 4.875 C-2 7 -2 7 -4 9 C-4.16687448 11.58354218 -4.16687448 11.58354218 -4 14 C-5.98 14.33 -7.96 14.66 -10 15 C-7.08785803 9.6237379 -3.75648099 4.82081727 0 0 Z " fill="#3D88DE" transform="translate(86,96)"/>
<path d="M0 0 C5.75 -0.125 5.75 -0.125 8 1 C7.67 1.66 7.34 2.32 7 3 C6.01 2.67 5.02 2.34 4 2 C0.04 7.94 0.04 7.94 -4 14 C-4.33 12.68 -4.66 11.36 -5 10 C-4.34 10 -3.68 10 -3 10 C-3 8.35 -3 6.7 -3 5 C-2.01 5 -1.02 5 0 5 C0 3.35 0 1.7 0 0 Z " fill="#3985E1" transform="translate(84,106)"/>
<path d="M0 0 C0.99 0.33 1.98 0.66 3 1 C3.33 2.65 3.66 4.3 4 6 C3.34 6 2.68 6 2 6 C2 6.66 2 7.32 2 8 C0.35 8.66 -1.3 9.32 -3 10 C-3.33 8.35 -3.66 6.7 -4 5 C-2.68 4.34 -1.36 3.68 0 3 C0 2.01 0 1.02 0 0 Z " fill="#1D7EF0" transform="translate(121,96)"/>
<path d="M0 0 C2.20770805 -0.08165496 4.41630425 -0.13948488 6.625 -0.1875 C7.85476562 -0.22230469 9.08453125 -0.25710937 10.3515625 -0.29296875 C14.29853429 0.02397224 16.65367341 0.92487555 20 3 C20.33 3.66 20.66 4.32 21 5 C19.60587891 4.69255859 19.60587891 4.69255859 18.18359375 4.37890625 C16.94738281 4.10949219 15.71117187 3.84007812 14.4375 3.5625 C13.21933594 3.29566406 12.00117188 3.02882812 10.74609375 2.75390625 C7.16360843 2.03292641 3.62040498 1.47992499 0 1 C0 0.67 0 0.34 0 0 Z " fill="#468CE1" transform="translate(119,45)"/>
<path d="M0 0 C1.75043149 0.79071216 3.50032778 1.58260918 5.25 2.375 C6.71179688 3.03628906 6.71179688 3.03628906 8.203125 3.7109375 C10.48897582 4.76447209 12.74876939 5.87438469 15 7 C11.7 7.33 8.4 7.66 5 8 C5 7.01 5 6.02 5 5 C3.35 4.67 1.7 4.34 0 4 C0 2.68 0 1.36 0 0 Z " fill="#3A86E4" transform="translate(65,146)"/>
<path d="M0 0 C0.99 0.33 1.98 0.66 3 1 C2.67 2.32 2.34 3.64 2 5 C1.34 5 0.68 5 0 5 C0 6.32 0 7.64 0 9 C-0.66 9 -1.32 9 -2 9 C-2 9.66 -2 10.32 -2 11 C-2.66 10.67 -3.32 10.34 -4 10 C-3.01 8.02 -2.02 6.04 -1 4 C-1.99 3.67 -2.98 3.34 -4 3 C-2.1875 1.4375 -2.1875 1.4375 0 0 Z " fill="#428BE3" transform="translate(129,78)"/>
<path d="M0 0 C3.375 -0.125 3.375 -0.125 7 0 C9 2 9 2 9.125 5.625 C9.08375 6.73875 9.0425 7.8525 9 9 C8.443125 8.2575 7.88625 7.515 7.3125 6.75 C5.06972822 4.08292005 2.77925025 2.08443768 0 0 Z " fill="#3182E5" transform="translate(141,50)"/>
<path d="M0 0 C1.98 0 3.96 0 6 0 C3.0582655 1.96115634 0.10902671 3.46229008 -3.0625 5 C-5.23163505 6.07403709 -5.23163505 6.07403709 -8 8 C-8 6.35 -8 4.7 -8 3 C-5.36 2.67 -2.72 2.34 0 2 C0 1.34 0 0.68 0 0 Z " fill="#3581E2" transform="translate(50,67)"/>
<path d="M0 0 C1.4391134 0.28359887 2.87625518 0.57721399 4.3125 0.875 C5.11300781 1.03742187 5.91351563 1.19984375 6.73828125 1.3671875 C9 2 9 2 12 4 C11.67 4.99 11.34 5.98 11 7 C9.35 7.33 7.7 7.66 6 8 C6.99 6.68 7.98 5.36 9 4 C4.545 3.01 4.545 3.01 0 2 C0 1.34 0 0.68 0 0 Z " fill="#3883D9" transform="translate(128,57)"/>
<path d="M0 0 C1 2 1 2 0.3984375 3.83984375 C-1.75547248 8.2545371 -3.31850554 10.91933579 -8 13 C-6.53181332 9.89257577 -4.79975 7.09528261 -2.875 4.25 C-2.33617188 3.45078125 -1.79734375 2.6515625 -1.2421875 1.828125 C-0.62730469 0.92320313 -0.62730469 0.92320313 0 0 Z " fill="#DBF3FE" transform="translate(85,111)"/>
<path d="M0 0 C0.99 0.33 1.98 0.66 3 1 C2.34 6.61 1.68 12.22 1 18 C0.67 18 0.34 18 0 18 C0 12.06 0 6.12 0 0 Z " fill="#2C7FDC" transform="translate(34,81)"/>
<path d="M0 0 C2.64 1.98 5.28 3.96 8 6 C4 7 4 7 1 6 C0.67 4.02 0.34 2.04 0 0 Z " fill="#3D8AE1" transform="translate(43,116)"/>
<path d="M0 0 C1 3 1 3 0.22265625 4.82421875 C-0.8515625 6.54947917 -1.92578125 8.27473958 -3 10 C-3.99 9.67 -4.98 9.34 -6 9 C-4.02 6.03 -2.04 3.06 0 0 Z " fill="#4389E0" transform="translate(75,111)"/>
<path d="M0 0 C1.65 0 3.3 0 5 0 C5 0.66 5 1.32 5 2 C7.97 2.495 7.97 2.495 11 3 C6.99799622 4.60080151 3.95443764 3.29279692 0 2 C0 1.34 0 0.68 0 0 Z " fill="#3C85DD" transform="translate(75,63)"/>
<path d="M0 0 C0.33 0.66 0.66 1.32 1 2 C-0.1875 5.5625 -0.1875 5.5625 -2 9 C-3.32 9.33 -4.64 9.66 -6 10 C-4.02 6.7 -2.04 3.4 0 0 Z " fill="#D3EFFD" transform="translate(129,96)"/>
<path d="M0 0 C0.66 0 1.32 0 2 0 C2.33 1.98 2.66 3.96 3 6 C1.68 5.67 0.36 5.34 -1 5 C-0.67 3.35 -0.34 1.7 0 0 Z " fill="#1D7FF1" transform="translate(125,91)"/>
<path d="M0 0 C0.99 0.33 1.98 0.66 3 1 C-1.75 5.875 -1.75 5.875 -4 7 C-2.92598892 4.08482708 -2.22189824 2.22189824 0 0 Z " fill="#CEEAFD" transform="translate(135,88)"/>
<path d="M0 0 C1.98 0.99 1.98 0.99 4 2 C4 2.66 4 3.32 4 4 C4.66 4 5.32 4 6 4 C6 4.66 6 5.32 6 6 C3.5625 5.25 3.5625 5.25 1 4 C0.1875 1.875 0.1875 1.875 0 0 Z " fill="#DEF5FE" transform="translate(65,143)"/>
<path d="M0 0 C1.98 0.99 3.96 1.98 6 3 C3.10765685 3.82638376 1.11257569 4 -2 4 C-1.34 2.68 -0.68 1.36 0 0 Z " fill="#D6F0FE" transform="translate(88,107)"/>
<path d="M0 0 C2 3 2 3 2 6 C-1.16115776 4.63016497 -1.9927092 4.0109362 -4 1 C-2.68 1.33 -1.36 1.66 0 2 C0 1.34 0 0.68 0 0 Z " fill="#3384E3" transform="translate(54,106)"/>
<path d="M0 0 C0.66 0.66 1.32 1.32 2 2 C1.67 2.99 1.34 3.98 1 5 C0.01 5 -0.98 5 -2 5 C-2 5.66 -2 6.32 -2 7 C-2.66 6.67 -3.32 6.34 -4 6 C-2.68 4.02 -1.36 2.04 0 0 Z " fill="#3E8DE5" transform="translate(116,101)"/>
</svg>
