<?xml version="1.0" encoding="UTF-8"?>
<svg version="1.1" xmlns="http://www.w3.org/2000/svg" width="248" height="140">
<path d="M0 0 C81.84 0 163.68 0 248 0 C248 46.2 248 92.4 248 140 C166.16 140 84.32 140 0 140 C0 93.8 0 47.6 0 0 Z " fill="#FCFCFB" transform="translate(0,0)"/>
<path d="M0 0 C1.32 0 2.64 0 4 0 C4 1.32 4 2.64 4 4 C4.66 4 5.32 4 6 4 C6 6.64 6 9.28 6 12 C6.66 12 7.32 12 8 12 C8 13.98 8 15.96 8 18 C8.66 18 9.32 18 10 18 C10 19.98 10 21.96 10 24 C10.66 24 11.32 24 12 24 C12 24.66 12 25.32 12 26 C13.98 26 15.96 26 18 26 C18 27.32 18 28.64 18 30 C17.34 30 16.68 30 16 30 C16 30.66 16 31.32 16 32 C19.3 32 22.6 32 26 32 C26 29.36 26 26.72 26 24 C27.32 24 28.64 24 30 24 C30 22.68 30 21.36 30 20 C30.66 20 31.32 20 32 20 C32 18.68 32 17.36 32 16 C32.66 16 33.32 16 34 16 C34 17.98 34 19.96 34 22 C34.66 22 35.32 22 36 22 C36 22.66 36 23.32 36 24 C36.66 24 37.32 24 38 24 C38 25.98 38 27.96 38 30 C39.98 30 41.96 30 44 30 C44 29.34 44 28.68 44 28 C44.66 28 45.32 28 46 28 C46 27.34 46 26.68 46 26 C46.66 26 47.32 26 48 26 C48 25.34 48 24.68 48 24 C48.66 24 49.32 24 50 24 C50 22.68 50 21.36 50 20 C50.66 20 51.32 20 52 20 C52 19.34 52 18.68 52 18 C52.66 18 53.32 18 54 18 C54 16.68 54 15.36 54 14 C54.66 14 55.32 14 56 14 C56 13.34 56 12.68 56 12 C56.66 12 57.32 12 58 12 C58 11.34 58 10.68 58 10 C59.32 10 60.64 10 62 10 C62 10.66 62 11.32 62 12 C63.98 12 65.96 12 68 12 C68 12.66 68 13.32 68 14 C69.32 14 70.64 14 72 14 C72 14.66 72 15.32 72 16 C74.64 16 77.28 16 80 16 C80 16.66 80 17.32 80 18 C80.66 18 81.32 18 82 18 C82 18.66 82 19.32 82 20 C86.62 20 91.24 20 96 20 C96 21.32 96 22.64 96 24 C98.64 24 101.28 24 104 24 C104 24.66 104 25.32 104 26 C104.66 26 105.32 26 106 26 C106 27.32 106 28.64 106 30 C106.66 30 107.32 30 108 30 C108 30.66 108 31.32 108 32 C108.66 32 109.32 32 110 32 C110 32.66 110 33.32 110 34 C110.66 34 111.32 34 112 34 C112 34.66 112 35.32 112 36 C112.66 36 113.32 36 114 36 C114 36.66 114 37.32 114 38 C114.66 38 115.32 38 116 38 C116 39.32 116 40.64 116 42 C116.66 42 117.32 42 118 42 C118 42.66 118 43.32 118 44 C118.66 44 119.32 44 120 44 C120 44.66 120 45.32 120 46 C120.66 46 121.32 46 122 46 C122 47.32 122 48.64 122 50 C122.66 50 123.32 50 124 50 C124 50.66 124 51.32 124 52 C124.66 52 125.32 52 126 52 C126 53.32 126 54.64 126 56 C127.32 56 128.64 56 130 56 C130 57.32 130 58.64 130 60 C130.66 60 131.32 60 132 60 C132 60.66 132 61.32 132 62 C132.66 62 133.32 62 134 62 C134 62.66 134 63.32 134 64 C134.66 64 135.32 64 136 64 C136 73.9 136 83.8 136 94 C114.22 94 92.44 94 70 94 C70 92.02 70 90.04 70 88 C79.9 88 89.8 88 100 88 C100 86.68 100 85.36 100 84 C90.1 84 80.2 84 70 84 C70 82.02 70 80.04 70 78 C79.9 78 89.8 78 100 78 C100 76.68 100 75.36 100 74 C90.1 74 80.2 74 70 74 C70 71.36 70 68.72 70 66 C79.9 66 89.8 66 100 66 C100 65.34 100 64.68 100 64 C99.34 64 98.68 64 98 64 C98 63.34 98 62.68 98 62 C73.58 62 49.16 62 24 62 C24 63.32 24 64.64 24 66 C33.24 66 42.48 66 52 66 C52 68.64 52 71.28 52 74 C42.76 74 33.52 74 24 74 C24 74.66 24 75.32 24 76 C33.24 76 42.48 76 52 76 C52 78.64 52 81.28 52 84 C42.76 84 33.52 84 24 84 C24 85.32 24 86.64 24 88 C33.24 88 42.48 88 52 88 C52 89.98 52 91.96 52 94 C40.12 94 28.24 94 16 94 C16 85.42 16 76.84 16 68 C14.68 68 13.36 68 12 68 C12 77.24 12 86.48 12 96 C-2.52 96 -17.04 96 -32 96 C-32 95.34 -32 94.68 -32 94 C-31.34 94 -30.68 94 -30 94 C-30 93.34 -30 92.68 -30 92 C-28.68 92 -27.36 92 -26 92 C-26 91.34 -26 90.68 -26 90 C-24.68 90 -23.36 90 -22 90 C-22 88.68 -22 87.36 -22 86 C-25.3 86 -28.6 86 -32 86 C-32 84.68 -32 83.36 -32 82 C-29.36 82 -26.72 82 -24 82 C-24 81.34 -24 80.68 -24 80 C-23.34 80 -22.68 80 -22 80 C-22 79.34 -22 78.68 -22 78 C-21.34 78 -20.68 78 -20 78 C-20 77.34 -20 76.68 -20 76 C-19.34 76 -18.68 76 -18 76 C-18 75.34 -18 74.68 -18 74 C-19.98 74 -21.96 74 -24 74 C-24 72.68 -24 71.36 -24 70 C-22.02 70 -20.04 70 -18 70 C-18 69.34 -18 68.68 -18 68 C-16.02 68 -14.04 68 -12 68 C-12 66.68 -12 65.36 -12 64 C-11.34 64 -10.68 64 -10 64 C-10 63.34 -10 62.68 -10 62 C-13.96 62 -17.92 62 -22 62 C-22 60.68 -22 59.36 -22 58 C-23.98 58 -25.96 58 -28 58 C-28 56.68 -28 55.36 -28 54 C-25.36 54 -22.72 54 -20 54 C-20 52.68 -20 51.36 -20 50 C-18.02 50 -16.04 50 -14 50 C-14 49.34 -14 48.68 -14 48 C-13.34 48 -12.68 48 -12 48 C-12 47.34 -12 46.68 -12 46 C-11.34 46 -10.68 46 -10 46 C-10 45.34 -10 44.68 -10 44 C-10.66 44 -11.32 44 -12 44 C-12 43.34 -12 42.68 -12 42 C-14.64 42 -17.28 42 -20 42 C-20 41.34 -20 40.68 -20 40 C-19.34 40 -18.68 40 -18 40 C-18 39.34 -18 38.68 -18 38 C-17.34 38 -16.68 38 -16 38 C-16 37.34 -16 36.68 -16 36 C-14.02 36 -12.04 36 -10 36 C-10 34.68 -10 33.36 -10 32 C-12.64 32 -15.28 32 -18 32 C-18 31.34 -18 30.68 -18 30 C-17.34 30 -16.68 30 -16 30 C-16 29.34 -16 28.68 -16 28 C-16.66 28 -17.32 28 -18 28 C-18 27.34 -18 26.68 -18 26 C-18.66 26 -19.32 26 -20 26 C-20 25.34 -20 24.68 -20 24 C-15.38 24 -10.76 24 -6 24 C-6 22.68 -6 21.36 -6 20 C-6.66 20 -7.32 20 -8 20 C-8 18.68 -8 17.36 -8 16 C-6.68 16 -5.36 16 -4 16 C-4 15.34 -4 14.68 -4 14 C-4.66 14 -5.32 14 -6 14 C-6 12.68 -6 11.36 -6 10 C-5.34 10 -4.68 10 -4 10 C-4 8.68 -4 7.36 -4 6 C-3.34 6 -2.68 6 -2 6 C-2 5.34 -2 4.68 -2 4 C-1.34 4 -0.68 4 0 4 C0 2.68 0 1.36 0 0 Z " fill="#576947" transform="translate(59,20)"/>
<path d="M0 0 C1.32 0 2.64 0 4 0 C4 1.32 4 2.64 4 4 C4.66 4 5.32 4 6 4 C6 6.64 6 9.28 6 12 C6.66 12 7.32 12 8 12 C8 13.98 8 15.96 8 18 C8.66 18 9.32 18 10 18 C10 19.98 10 21.96 10 24 C10.66 24 11.32 24 12 24 C12 24.66 12 25.32 12 26 C13.98 26 15.96 26 18 26 C18 27.32 18 28.64 18 30 C17.34 30 16.68 30 16 30 C16 30.66 16 31.32 16 32 C17.32 32 18.64 32 20 32 C20 33.32 20 34.64 20 36 C18.02 36 16.04 36 14 36 C14 35.34 14 34.68 14 34 C13.34 34 12.68 34 12 34 C12 33.34 12 32.68 12 32 C10.68 32 9.36 32 8 32 C8 32.66 8 33.32 8 34 C8.66 34 9.32 34 10 34 C10 34.66 10 35.32 10 36 C10.66 36 11.32 36 12 36 C12 36.66 12 37.32 12 38 C12.66 38 13.32 38 14 38 C14 38.66 14 39.32 14 40 C14.66 40 15.32 40 16 40 C16 40.66 16 41.32 16 42 C14.68 42 13.36 42 12 42 C12 43.32 12 44.64 12 46 C12.66 46 13.32 46 14 46 C14 47.32 14 48.64 14 50 C14.66 50 15.32 50 16 50 C16 50.66 16 51.32 16 52 C16.66 52 17.32 52 18 52 C18 53.32 18 54.64 18 56 C17.34 56 16.68 56 16 56 C16 57.32 16 58.64 16 60 C15.34 60 14.68 60 14 60 C14 60.66 14 61.32 14 62 C12.02 62 10.04 62 8 62 C8 62.66 8 63.32 8 64 C6.02 64 4.04 64 2 64 C2 65.32 2 66.64 2 68 C5.3 68 8.6 68 12 68 C12 77.24 12 86.48 12 96 C-2.52 96 -17.04 96 -32 96 C-32 95.34 -32 94.68 -32 94 C-31.34 94 -30.68 94 -30 94 C-30 93.34 -30 92.68 -30 92 C-28.68 92 -27.36 92 -26 92 C-26 91.34 -26 90.68 -26 90 C-24.68 90 -23.36 90 -22 90 C-22 88.68 -22 87.36 -22 86 C-25.3 86 -28.6 86 -32 86 C-32 84.68 -32 83.36 -32 82 C-29.36 82 -26.72 82 -24 82 C-24 81.34 -24 80.68 -24 80 C-23.34 80 -22.68 80 -22 80 C-22 79.34 -22 78.68 -22 78 C-21.34 78 -20.68 78 -20 78 C-20 77.34 -20 76.68 -20 76 C-19.34 76 -18.68 76 -18 76 C-18 75.34 -18 74.68 -18 74 C-19.98 74 -21.96 74 -24 74 C-24 72.68 -24 71.36 -24 70 C-22.02 70 -20.04 70 -18 70 C-18 69.34 -18 68.68 -18 68 C-16.02 68 -14.04 68 -12 68 C-12 66.68 -12 65.36 -12 64 C-11.34 64 -10.68 64 -10 64 C-10 63.34 -10 62.68 -10 62 C-13.96 62 -17.92 62 -22 62 C-22 60.68 -22 59.36 -22 58 C-23.98 58 -25.96 58 -28 58 C-28 56.68 -28 55.36 -28 54 C-25.36 54 -22.72 54 -20 54 C-20 52.68 -20 51.36 -20 50 C-18.02 50 -16.04 50 -14 50 C-14 49.34 -14 48.68 -14 48 C-13.34 48 -12.68 48 -12 48 C-12 47.34 -12 46.68 -12 46 C-11.34 46 -10.68 46 -10 46 C-10 45.34 -10 44.68 -10 44 C-10.66 44 -11.32 44 -12 44 C-12 43.34 -12 42.68 -12 42 C-14.64 42 -17.28 42 -20 42 C-20 41.34 -20 40.68 -20 40 C-19.34 40 -18.68 40 -18 40 C-18 39.34 -18 38.68 -18 38 C-17.34 38 -16.68 38 -16 38 C-16 37.34 -16 36.68 -16 36 C-14.02 36 -12.04 36 -10 36 C-10 34.68 -10 33.36 -10 32 C-12.64 32 -15.28 32 -18 32 C-18 31.34 -18 30.68 -18 30 C-17.34 30 -16.68 30 -16 30 C-16 29.34 -16 28.68 -16 28 C-16.66 28 -17.32 28 -18 28 C-18 27.34 -18 26.68 -18 26 C-18.66 26 -19.32 26 -20 26 C-20 25.34 -20 24.68 -20 24 C-15.38 24 -10.76 24 -6 24 C-6 22.68 -6 21.36 -6 20 C-6.66 20 -7.32 20 -8 20 C-8 18.68 -8 17.36 -8 16 C-6.68 16 -5.36 16 -4 16 C-4 15.34 -4 14.68 -4 14 C-4.66 14 -5.32 14 -6 14 C-6 12.68 -6 11.36 -6 10 C-5.34 10 -4.68 10 -4 10 C-4 8.68 -4 7.36 -4 6 C-3.34 6 -2.68 6 -2 6 C-2 5.34 -2 4.68 -2 4 C-1.34 4 -0.68 4 0 4 C0 2.68 0 1.36 0 0 Z " fill="#556745" transform="translate(59,20)"/>
<path d="M0 0 C0.66 0 1.32 0 2 0 C2 1.98 2 3.96 2 6 C2.66 6 3.32 6 4 6 C4 7.32 4 8.64 4 10 C4.66 10 5.32 10 6 10 C6 11.32 6 12.64 6 14 C5.34 14 4.68 14 4 14 C4 14.66 4 15.32 4 16 C4.66 16 5.32 16 6 16 C6 16.66 6 17.32 6 18 C6.66 18 7.32 18 8 18 C8 18.66 8 19.32 8 20 C7.34 20 6.68 20 6 20 C6 20.66 6 21.32 6 22 C5.34 22 4.68 22 4 22 C4 23.32 4 24.64 4 26 C5.32 26 6.64 26 8 26 C8 26.66 8 27.32 8 28 C8.66 28 9.32 28 10 28 C10 28.66 10 29.32 10 30 C11.32 30 12.64 30 14 30 C14 31.32 14 32.64 14 34 C12.02 34 10.04 34 8 34 C8 35.32 8 36.64 8 38 C9.32 38 10.64 38 12 38 C12 38.66 12 39.32 12 40 C14.64 40 17.28 40 20 40 C20 38.68 20 37.36 20 36 C20.66 36 21.32 36 22 36 C22 35.34 22 34.68 22 34 C22.66 34 23.32 34 24 34 C24 33.34 24 32.68 24 32 C24.66 32 25.32 32 26 32 C26 29.36 26 26.72 26 24 C27.32 24 28.64 24 30 24 C30 27.96 30 31.92 30 36 C30.66 36 31.32 36 32 36 C32 36.66 32 37.32 32 38 C32.66 38 33.32 38 34 38 C34 38.66 34 39.32 34 40 C34.66 40 35.32 40 36 40 C36 40.66 36 41.32 36 42 C35.34 42 34.68 42 34 42 C34 43.32 34 44.64 34 46 C35.98 46 37.96 46 40 46 C40 47.32 40 48.64 40 50 C38.68 50 37.36 50 36 50 C36 50.66 36 51.32 36 52 C35.34 52 34.68 52 34 52 C34 53.32 34 54.64 34 56 C34.66 56 35.32 56 36 56 C36 56.66 36 57.32 36 58 C36.66 58 37.32 58 38 58 C38 58.66 38 59.32 38 60 C39.32 60 40.64 60 42 60 C42 61.32 42 62.64 42 64 C42.66 64 43.32 64 44 64 C44 64.66 44 65.32 44 66 C41.36 66 38.72 66 36 66 C36 67.32 36 68.64 36 70 C37.32 70 38.64 70 40 70 C40 70.66 40 71.32 40 72 C43.3 72 46.6 72 50 72 C50 73.32 50 74.64 50 76 C48.68 76 47.36 76 46 76 C46 77.32 46 78.64 46 80 C44.68 80 43.36 80 42 80 C42 80.66 42 81.32 42 82 C42.66 82 43.32 82 44 82 C44 82.66 44 83.32 44 84 C46.64 84 49.28 84 52 84 C52 84.66 52 85.32 52 86 C51.34 86 50.68 86 50 86 C50 86.66 50 87.32 50 88 C49.34 88 48.68 88 48 88 C48 88.66 48 89.32 48 90 C47.34 90 46.68 90 46 90 C46 90.66 46 91.32 46 92 C33.46 92 20.92 92 8 92 C8 80.78 8 69.56 8 58 C7.34 58 6.68 58 6 58 C6 57.34 6 56.68 6 56 C5.34 56 4.68 56 4 56 C4 54.68 4 53.36 4 52 C3.34 52 2.68 52 2 52 C2 51.34 2 50.68 2 50 C1.34 50 0.68 50 0 50 C0 49.34 0 48.68 0 48 C-0.66 48 -1.32 48 -2 48 C-2 47.34 -2 46.68 -2 46 C-2.66 46 -3.32 46 -4 46 C-4 44.68 -4 43.36 -4 42 C-4.66 42 -5.32 42 -6 42 C-6 41.34 -6 40.68 -6 40 C-6.66 40 -7.32 40 -8 40 C-8 39.34 -8 38.68 -8 38 C-8.66 38 -9.32 38 -10 38 C-10 37.34 -10 36.68 -10 36 C-10.66 36 -11.32 36 -12 36 C-12 34.68 -12 33.36 -12 32 C-12.66 32 -13.32 32 -14 32 C-14 31.34 -14 30.68 -14 30 C-14.66 30 -15.32 30 -16 30 C-16 28.68 -16 27.36 -16 26 C-15.34 26 -14.68 26 -14 26 C-14 24.68 -14 23.36 -14 22 C-14.66 22 -15.32 22 -16 22 C-16 21.34 -16 20.68 -16 20 C-15.34 20 -14.68 20 -14 20 C-14 19.34 -14 18.68 -14 18 C-12.02 18 -10.04 18 -8 18 C-8 16.02 -8 14.04 -8 12 C-7.34 12 -6.68 12 -6 12 C-6 11.34 -6 10.68 -6 10 C-5.34 10 -4.68 10 -4 10 C-4 8.68 -4 7.36 -4 6 C-3.34 6 -2.68 6 -2 6 C-2 4.68 -2 3.36 -2 2 C-1.34 2 -0.68 2 0 2 C0 1.34 0 0.68 0 0 Z " fill="#596A49" transform="translate(191,24)"/>
<path d="M0 0 C0.66 0 1.32 0 2 0 C2 1.98 2 3.96 2 6 C2.66 6 3.32 6 4 6 C4 6.66 4 7.32 4 8 C4.66 8 5.32 8 6 8 C6 9.98 6 11.96 6 14 C7.32 14 8.64 14 10 14 C10 14.66 10 15.32 10 16 C9.34 16 8.68 16 8 16 C8 17.32 8 18.64 8 20 C7.34 20 6.68 20 6 20 C6 20.66 6 21.32 6 22 C5.34 22 4.68 22 4 22 C4 22.66 4 23.32 4 24 C3.34 24 2.68 24 2 24 C2 25.32 2 26.64 2 28 C1.34 28 0.68 28 0 28 C0 28.66 0 29.32 0 30 C-0.66 30 -1.32 30 -2 30 C-2 31.32 -2 32.64 -2 34 C-2.66 34 -3.32 34 -4 34 C-4 34.66 -4 35.32 -4 36 C-4.66 36 -5.32 36 -6 36 C-6 36.66 -6 37.32 -6 38 C-6.66 38 -7.32 38 -8 38 C-8 38.66 -8 39.32 -8 40 C-8.66 40 -9.32 40 -10 40 C-10 41.32 -10 42.64 -10 44 C-10.66 44 -11.32 44 -12 44 C-11.67 45.32 -11.34 46.64 -11 48 C-10.01 48 -9.02 48 -8 48 C-8 48.66 -8 49.32 -8 50 C1.24 50 10.48 50 20 50 C20 52.64 20 55.28 20 58 C10.76 58 1.52 58 -8 58 C-8 58.66 -8 59.32 -8 60 C1.24 60 10.48 60 20 60 C20 62.64 20 65.28 20 68 C10.76 68 1.52 68 -8 68 C-8 69.32 -8 70.64 -8 72 C1.24 72 10.48 72 20 72 C20 73.98 20 75.96 20 78 C8.12 78 -3.76 78 -16 78 C-16 69.42 -16 60.84 -16 52 C-20.62 52 -25.24 52 -30 52 C-30 50.68 -30 49.36 -30 48 C-28.02 48 -26.04 48 -24 48 C-24 47.34 -24 46.68 -24 46 C-22.02 46 -20.04 46 -18 46 C-18 45.34 -18 44.68 -18 44 C-17.34 44 -16.68 44 -16 44 C-16 42.68 -16 41.36 -16 40 C-15.34 40 -14.68 40 -14 40 C-14 38.68 -14 37.36 -14 36 C-14.66 36 -15.32 36 -16 36 C-16 35.34 -16 34.68 -16 34 C-16.66 34 -17.32 34 -18 34 C-18 32.68 -18 31.36 -18 30 C-18.66 30 -19.32 30 -20 30 C-20 28.68 -20 27.36 -20 26 C-18.68 26 -17.36 26 -16 26 C-16 25.34 -16 24.68 -16 24 C-16.66 24 -17.32 24 -18 24 C-18 23.34 -18 22.68 -18 22 C-18.66 22 -19.32 22 -20 22 C-20 21.34 -20 20.68 -20 20 C-20.66 20 -21.32 20 -22 20 C-22 19.34 -22 18.68 -22 18 C-22.66 18 -23.32 18 -24 18 C-24 17.34 -24 16.68 -24 16 C-22.68 16 -21.36 16 -20 16 C-20 16.66 -20 17.32 -20 18 C-19.34 18 -18.68 18 -18 18 C-18 18.66 -18 19.32 -18 20 C-16.02 20 -14.04 20 -12 20 C-12 18.68 -12 17.36 -12 16 C-10.02 16 -8.04 16 -6 16 C-6 13.36 -6 10.72 -6 8 C-4.68 8 -3.36 8 -2 8 C-2 6.68 -2 5.36 -2 4 C-1.34 4 -0.68 4 0 4 C0 2.68 0 1.36 0 0 Z " fill="#6C795E" transform="translate(91,36)"/>
<path d="M0 0 C1.32 0 2.64 0 4 0 C4 1.32 4 2.64 4 4 C4.66 4 5.32 4 6 4 C6 4.66 6 5.32 6 6 C6.66 6 7.32 6 8 6 C8 6.66 8 7.32 8 8 C8.66 8 9.32 8 10 8 C10 8.66 10 9.32 10 10 C10.66 10 11.32 10 12 10 C12 10.66 12 11.32 12 12 C12.66 12 13.32 12 14 12 C14 13.32 14 14.64 14 16 C14.66 16 15.32 16 16 16 C16 16.66 16 17.32 16 18 C16.66 18 17.32 18 18 18 C18 18.66 18 19.32 18 20 C18.66 20 19.32 20 20 20 C20 21.32 20 22.64 20 24 C20.66 24 21.32 24 22 24 C22 24.66 22 25.32 22 26 C22.66 26 23.32 26 24 26 C24 26.66 24 27.32 24 28 C24.66 28 25.32 28 26 28 C26 29.98 26 31.96 26 34 C27.32 34 28.64 34 30 34 C30 35.32 30 36.64 30 38 C30.66 38 31.32 38 32 38 C32 38.66 32 39.32 32 40 C12.86 40 -6.28 40 -26 40 C-26 38.02 -26 36.04 -26 34 C-25.34 34 -24.68 34 -24 34 C-24 32.68 -24 31.36 -24 30 C-23.34 30 -22.68 30 -22 30 C-22 29.34 -22 28.68 -22 28 C-21.34 28 -20.68 28 -20 28 C-20 27.34 -20 26.68 -20 26 C-19.34 26 -18.68 26 -18 26 C-18 25.34 -18 24.68 -18 24 C-17.34 24 -16.68 24 -16 24 C-16 22.68 -16 21.36 -16 20 C-14.68 20 -13.36 20 -12 20 C-12 18.68 -12 17.36 -12 16 C-11.34 16 -10.68 16 -10 16 C-10 15.34 -10 14.68 -10 14 C-9.34 14 -8.68 14 -8 14 C-8 13.34 -8 12.68 -8 12 C-7.34 12 -6.68 12 -6 12 C-6 10.68 -6 9.36 -6 8 C-5.34 8 -4.68 8 -4 8 C-4 7.34 -4 6.68 -4 6 C-3.34 6 -2.68 6 -2 6 C-2 5.34 -2 4.68 -2 4 C-1.34 4 -0.68 4 0 4 C0 2.68 0 1.36 0 0 Z " fill="#F3F6EF" transform="translate(119,36)"/>
<path d="M0 0 C0.66 0 1.32 0 2 0 C2 1.98 2 3.96 2 6 C2.66 6 3.32 6 4 6 C4 6.66 4 7.32 4 8 C4.66 8 5.32 8 6 8 C6 9.98 6 11.96 6 14 C7.32 14 8.64 14 10 14 C10 14.66 10 15.32 10 16 C9.34 16 8.68 16 8 16 C8 17.32 8 18.64 8 20 C7.34 20 6.68 20 6 20 C6 20.66 6 21.32 6 22 C5.34 22 4.68 22 4 22 C4 22.66 4 23.32 4 24 C3.34 24 2.68 24 2 24 C2 25.32 2 26.64 2 28 C1.34 28 0.68 28 0 28 C0 28.66 0 29.32 0 30 C-0.66 30 -1.32 30 -2 30 C-2 31.32 -2 32.64 -2 34 C-2.66 34 -3.32 34 -4 34 C-4 34.66 -4 35.32 -4 36 C-4.66 36 -5.32 36 -6 36 C-6 36.66 -6 37.32 -6 38 C-6.66 38 -7.32 38 -8 38 C-8 38.66 -8 39.32 -8 40 C-8.66 40 -9.32 40 -10 40 C-10 41.32 -10 42.64 -10 44 C-10.66 44 -11.32 44 -12 44 C-12 44.66 -12 45.32 -12 46 C-12.66 46 -13.32 46 -14 46 C-14 46.66 -14 47.32 -14 48 C-15.98 48 -17.96 48 -20 48 C-20 48.66 -20 49.32 -20 50 C-18.02 50 -16.04 50 -14 50 C-14 59.24 -14 68.48 -14 78 C-14.66 78 -15.32 78 -16 78 C-16 69.42 -16 60.84 -16 52 C-20.62 52 -25.24 52 -30 52 C-30 50.68 -30 49.36 -30 48 C-28.02 48 -26.04 48 -24 48 C-24 47.34 -24 46.68 -24 46 C-22.02 46 -20.04 46 -18 46 C-18 45.34 -18 44.68 -18 44 C-17.34 44 -16.68 44 -16 44 C-16 42.68 -16 41.36 -16 40 C-15.34 40 -14.68 40 -14 40 C-14 38.68 -14 37.36 -14 36 C-14.66 36 -15.32 36 -16 36 C-16 35.34 -16 34.68 -16 34 C-16.66 34 -17.32 34 -18 34 C-18 32.68 -18 31.36 -18 30 C-18.66 30 -19.32 30 -20 30 C-20 28.68 -20 27.36 -20 26 C-18.68 26 -17.36 26 -16 26 C-16 25.34 -16 24.68 -16 24 C-16.66 24 -17.32 24 -18 24 C-18 23.34 -18 22.68 -18 22 C-18.66 22 -19.32 22 -20 22 C-20 21.34 -20 20.68 -20 20 C-20.66 20 -21.32 20 -22 20 C-22 19.34 -22 18.68 -22 18 C-22.66 18 -23.32 18 -24 18 C-24 17.34 -24 16.68 -24 16 C-22.68 16 -21.36 16 -20 16 C-20 16.66 -20 17.32 -20 18 C-19.34 18 -18.68 18 -18 18 C-18 18.66 -18 19.32 -18 20 C-16.02 20 -14.04 20 -12 20 C-12 18.68 -12 17.36 -12 16 C-10.02 16 -8.04 16 -6 16 C-6 13.36 -6 10.72 -6 8 C-4.68 8 -3.36 8 -2 8 C-2 6.68 -2 5.36 -2 4 C-1.34 4 -0.68 4 0 4 C0 2.68 0 1.36 0 0 Z " fill="#E4ECDE" transform="translate(91,36)"/>
<path d="M0 0 C1.32 0 2.64 0 4 0 C4 0.66 4 1.32 4 2 C4.66 2 5.32 2 6 2 C6 3.32 6 4.64 6 6 C6.66 6 7.32 6 8 6 C8 6.66 8 7.32 8 8 C8.66 8 9.32 8 10 8 C10 8.66 10 9.32 10 10 C10.66 10 11.32 10 12 10 C12 11.98 12 13.96 12 16 C13.32 16 14.64 16 16 16 C16 17.32 16 18.64 16 20 C16.66 20 17.32 20 18 20 C18 20.66 18 21.32 18 22 C-1.14 22 -20.28 22 -40 22 C-40 21.34 -40 20.68 -40 20 C-33.4 20 -26.8 20 -20 20 C-20 16.7 -20 13.4 -20 10 C-20.66 10 -21.32 10 -22 10 C-22 8.68 -22 7.36 -22 6 C-22.66 6 -23.32 6 -24 6 C-24 4.68 -24 3.36 -24 2 C-22.68 2 -21.36 2 -20 2 C-20 3.32 -20 4.64 -20 6 C-19.34 6 -18.68 6 -18 6 C-18 7.32 -18 8.64 -18 10 C-17.34 10 -16.68 10 -16 10 C-16 8.68 -16 7.36 -16 6 C-15.34 6 -14.68 6 -14 6 C-14 4.68 -14 3.36 -14 2 C-12.68 2 -11.36 2 -10 2 C-10 3.98 -10 5.96 -10 8 C-8.68 8 -7.36 8 -6 8 C-6 6.68 -6 5.36 -6 4 C-5.34 4 -4.68 4 -4 4 C-4 3.34 -4 2.68 -4 2 C-3.34 2 -2.68 2 -2 2 C-2 3.32 -2 4.64 -2 6 C-1.34 6 -0.68 6 0 6 C0 4.02 0 2.04 0 0 Z " fill="#F3F6EF" transform="translate(133,54)"/>
<path d="M0 0 C1.32 0 2.64 0 4 0 C4 9.9 4 19.8 4 30 C-17.78 30 -39.56 30 -62 30 C-62 28.02 -62 26.04 -62 24 C-52.1 24 -42.2 24 -32 24 C-32 24.66 -32 25.32 -32 26 C-21.44 26 -10.88 26 0 26 C0 17.42 0 8.84 0 0 Z " fill="#4D5C3E" transform="translate(191,84)"/>
<path d="M0 0 C1.32 0 2.64 0 4 0 C4 1.32 4 2.64 4 4 C3.34 4 2.68 4 2 4 C2 5.98 2 7.96 2 10 C20.48 10 38.96 10 58 10 C58 10.66 58 11.32 58 12 C61.3 12 64.6 12 68 12 C68 12.66 68 13.32 68 14 C43.58 14 19.16 14 -6 14 C-6 14.66 -6 15.32 -6 16 C-7.32 16.33 -8.64 16.66 -10 17 C-10 15.35 -10 13.7 -10 12 C-9.34 12 -8.68 12 -8 12 C-8 10.68 -8 9.36 -8 8 C-7.34 8 -6.68 8 -6 8 C-6 7.34 -6 6.68 -6 6 C-5.34 6 -4.68 6 -4 6 C-4 5.34 -4 4.68 -4 4 C-3.34 4 -2.68 4 -2 4 C-2 3.34 -2 2.68 -2 2 C-1.34 2 -0.68 2 0 2 C0 1.34 0 0.68 0 0 Z " fill="#566646" transform="translate(89,68)"/>
<path d="M0 0 C1.32 0 2.64 0 4 0 C4 0.66 4 1.32 4 2 C5.98 2 7.96 2 10 2 C10 2.66 10 3.32 10 4 C8.68 4 7.36 4 6 4 C6 4.66 6 5.32 6 6 C4.68 6 3.36 6 2 6 C2 7.32 2 8.64 2 10 C1.34 10 0.68 10 0 10 C0 10.66 0 11.32 0 12 C-0.66 12 -1.32 12 -2 12 C-2 12.66 -2 13.32 -2 14 C-2.66 14 -3.32 14 -4 14 C-4 15.32 -4 16.64 -4 18 C-4.66 18 -5.32 18 -6 18 C-6 18.66 -6 19.32 -6 20 C-6.66 20 -7.32 20 -8 20 C-8 20.66 -8 21.32 -8 22 C-8.66 22 -9.32 22 -10 22 C-10 23.32 -10 24.64 -10 26 C-11.32 26 -12.64 26 -14 26 C-14 27.32 -14 28.64 -14 30 C-14.66 30 -15.32 30 -16 30 C-16 30.66 -16 31.32 -16 32 C-16.66 32 -17.32 32 -18 32 C-18 32.66 -18 33.32 -18 34 C-18.66 34 -19.32 34 -20 34 C-20 34.66 -20 35.32 -20 36 C-20.66 36 -21.32 36 -22 36 C-22 37.32 -22 38.64 -22 40 C-22.66 40 -23.32 40 -24 40 C-24 39.34 -24 38.68 -24 38 C-25.32 38 -26.64 38 -28 38 C-28 37.34 -28 36.68 -28 36 C-27.34 36 -26.68 36 -26 36 C-26 35.34 -26 34.68 -26 34 C-25.34 34 -24.68 34 -24 34 C-24 32.68 -24 31.36 -24 30 C-23.34 30 -22.68 30 -22 30 C-22 29.34 -22 28.68 -22 28 C-21.34 28 -20.68 28 -20 28 C-20 27.34 -20 26.68 -20 26 C-19.34 26 -18.68 26 -18 26 C-18 24.68 -18 23.36 -18 22 C-17.34 22 -16.68 22 -16 22 C-16 21.34 -16 20.68 -16 20 C-15.34 20 -14.68 20 -14 20 C-14 19.34 -14 18.68 -14 18 C-13.34 18 -12.68 18 -12 18 C-12 17.34 -12 16.68 -12 16 C-11.34 16 -10.68 16 -10 16 C-10 15.34 -10 14.68 -10 14 C-9.34 14 -8.68 14 -8 14 C-8 12.68 -8 11.36 -8 10 C-7.34 10 -6.68 10 -6 10 C-6 9.34 -6 8.68 -6 8 C-5.34 8 -4.68 8 -4 8 C-4 6.68 -4 5.36 -4 4 C-3.34 4 -2.68 4 -2 4 C-2 3.34 -2 2.68 -2 2 C-1.34 2 -0.68 2 0 2 C0 1.34 0 0.68 0 0 Z " fill="#657158" transform="translate(117,30)"/>
<path d="M0 0 C0.66 0 1.32 0 2 0 C2 1.98 2 3.96 2 6 C2.66 6 3.32 6 4 6 C4 6.66 4 7.32 4 8 C4.66 8 5.32 8 6 8 C6 9.98 6 11.96 6 14 C5.34 14 4.68 14 4 14 C4 14.66 4 15.32 4 16 C3.34 16 2.68 16 2 16 C2 17.32 2 18.64 2 20 C1.34 20 0.68 20 0 20 C0 20.66 0 21.32 0 22 C-0.66 22 -1.32 22 -2 22 C-2 22.66 -2 23.32 -2 24 C-2.66 24 -3.32 24 -4 24 C-4 25.32 -4 26.64 -4 28 C-4.66 28 -5.32 28 -6 28 C-6 28.66 -6 29.32 -6 30 C-6.66 30 -7.32 30 -8 30 C-8 31.32 -8 32.64 -8 34 C-9.98 34 -11.96 34 -14 34 C-14 32.68 -14 31.36 -14 30 C-12.68 30 -11.36 30 -10 30 C-10 28.68 -10 27.36 -10 26 C-10.66 26 -11.32 26 -12 26 C-12 24.68 -12 23.36 -12 22 C-10.68 22 -9.36 22 -8 22 C-8 20.02 -8 18.04 -8 16 C-7.34 16 -6.68 16 -6 16 C-6 13.36 -6 10.72 -6 8 C-4.68 8 -3.36 8 -2 8 C-2 6.68 -2 5.36 -2 4 C-1.34 4 -0.68 4 0 4 C0 2.68 0 1.36 0 0 Z " fill="#5B6B4E" transform="translate(91,36)"/>
<path d="M0 0 C0.66 0 1.32 0 2 0 C2 9.24 2 18.48 2 28 C11.9 28 21.8 28 32 28 C32 27.34 32 26.68 32 26 C32.66 26 33.32 26 34 26 C34 27.98 34 29.96 34 32 C22.78 32 11.56 32 0 32 C0 22.76 0 13.52 0 4 C-1.98 4 -3.96 4 -6 4 C-6 3.34 -6 2.68 -6 2 C-4.02 2 -2.04 2 0 2 C0 1.34 0 0.68 0 0 Z " fill="#616F54" transform="translate(77,82)"/>
<path d="M0 0 C1.32 0 2.64 0 4 0 C4 1.32 4 2.64 4 4 C4.66 4 5.32 4 6 4 C6 5.32 6 6.64 6 8 C6.66 8 7.32 8 8 8 C8 6.68 8 5.36 8 4 C8.66 4 9.32 4 10 4 C10 2.68 10 1.36 10 0 C11.32 0 12.64 0 14 0 C14 1.98 14 3.96 14 6 C15.32 6 16.64 6 18 6 C18 4.68 18 3.36 18 2 C18.66 2 19.32 2 20 2 C20 1.34 20 0.68 20 0 C20.66 0 21.32 0 22 0 C22 1.98 22 3.96 22 6 C21.34 6 20.68 6 20 6 C20 8.64 20 11.28 20 14 C19.34 14 18.68 14 18 14 C18 14.66 18 15.32 18 16 C16.68 16 15.36 16 14 16 C14 15.34 14 14.68 14 14 C13.34 14 12.68 14 12 14 C12 12.68 12 11.36 12 10 C11.34 10 10.68 10 10 10 C10 11.32 10 12.64 10 14 C9.34 14 8.68 14 8 14 C8 14.66 8 15.32 8 16 C6.68 16 5.36 16 4 16 C4 13.36 4 10.72 4 8 C3.34 8 2.68 8 2 8 C2 6.68 2 5.36 2 4 C1.34 4 0.68 4 0 4 C0 2.68 0 1.36 0 0 Z " fill="#96A28C" transform="translate(109,56)"/>
<path d="M0 0 C0.66 0 1.32 0 2 0 C2 9.9 2 19.8 2 30 C-19.78 30 -41.56 30 -64 30 C-64 29.34 -64 28.68 -64 28 C-42.88 28 -21.76 28 0 28 C0 18.76 0 9.52 0 0 Z " fill="#738068" transform="translate(193,84)"/>
<path d="M0 0 C0.66 0 1.32 0 2 0 C2 0.66 2 1.32 2 2 C26.42 2 50.84 2 76 2 C76 2.66 76 3.32 76 4 C51.58 4 27.16 4 2 4 C2 4.66 2 5.32 2 6 C0.68 6.33 -0.64 6.66 -2 7 C-2 5.35 -2 3.7 -2 2 C-1.34 2 -0.68 2 0 2 C0 1.34 0 0.68 0 0 Z " fill="#4B5A3D" transform="translate(81,78)"/>
<path d="M0 0 C0.66 0 1.32 0 2 0 C2 1.32 2 2.64 2 4 C2.66 4 3.32 4 4 4 C4 4.66 4 5.32 4 6 C4.66 6 5.32 6 6 6 C6 7.32 6 8.64 6 10 C6.66 10 7.32 10 8 10 C8 10.66 8 11.32 8 12 C8.66 12 9.32 12 10 12 C10 12.66 10 13.32 10 14 C10.66 14 11.32 14 12 14 C12 14.66 12 15.32 12 16 C12.66 16 13.32 16 14 16 C14 17.32 14 18.64 14 20 C14.66 20 15.32 20 16 20 C16 20.66 16 21.32 16 22 C16.66 22 17.32 22 18 22 C18 22.66 18 23.32 18 24 C18.66 24 19.32 24 20 24 C20 24.66 20 25.32 20 26 C20.66 26 21.32 26 22 26 C22 27.32 22 28.64 22 30 C21.34 30 20.68 30 20 30 C20 30.66 20 31.32 20 32 C19.34 32 18.68 32 18 32 C18 31.34 18 30.68 18 30 C17.34 30 16.68 30 16 30 C16 28.68 16 27.36 16 26 C14.68 26 13.36 26 12 26 C12 24.68 12 23.36 12 22 C11.34 22 10.68 22 10 22 C10 21.34 10 20.68 10 20 C9.34 20 8.68 20 8 20 C8 18.68 8 17.36 8 16 C7.34 16 6.68 16 6 16 C6 15.34 6 14.68 6 14 C5.34 14 4.68 14 4 14 C4 13.34 4 12.68 4 12 C3.34 12 2.68 12 2 12 C2 10.68 2 9.36 2 8 C1.34 8 0.68 8 0 8 C0 7.34 0 6.68 0 6 C-0.66 6 -1.32 6 -2 6 C-2 5.34 -2 4.68 -2 4 C-1.34 4 -0.68 4 0 4 C0 2.68 0 1.36 0 0 Z " fill="#E7EEE0" transform="translate(173,50)"/>
<path d="M0 0 C1.32 0 2.64 0 4 0 C4 0.66 4 1.32 4 2 C4.66 2 5.32 2 6 2 C6 2.66 6 3.32 6 4 C7.98 4 9.96 4 12 4 C12 2.68 12 1.36 12 0 C13.32 0 14.64 0 16 0 C16 1.98 16 3.96 16 6 C14.68 6 13.36 6 12 6 C12 7.32 12 8.64 12 10 C12.66 10 13.32 10 14 10 C14 11.32 14 12.64 14 14 C12.68 14 11.36 14 10 14 C10 15.32 10 16.64 10 18 C11.32 18 12.64 18 14 18 C14 18.66 14 19.32 14 20 C13.34 20 12.68 20 12 20 C12 20.66 12 21.32 12 22 C11.34 22 10.68 22 10 22 C10 21.34 10 20.68 10 20 C9.34 20 8.68 20 8 20 C8 19.34 8 18.68 8 18 C7.34 18 6.68 18 6 18 C6 16.68 6 15.36 6 14 C5.34 14 4.68 14 4 14 C4 12.68 4 11.36 4 10 C5.32 10 6.64 10 8 10 C8 9.34 8 8.68 8 8 C7.34 8 6.68 8 6 8 C6 7.34 6 6.68 6 6 C5.34 6 4.68 6 4 6 C4 5.34 4 4.68 4 4 C3.34 4 2.68 4 2 4 C2 3.34 2 2.68 2 2 C1.34 2 0.68 2 0 2 C0 1.34 0 0.68 0 0 Z " fill="#D8E1D0" transform="translate(67,52)"/>
<path d="M0 0 C11.88 0 23.76 0 36 0 C36 1.32 36 2.64 36 4 C24.12 4 12.24 4 0 4 C0 2.68 0 1.36 0 0 Z " fill="#D7DFCC" transform="translate(123,104)"/>
<path d="M0 0 C0.66 0 1.32 0 2 0 C2 1.32 2 2.64 2 4 C21.14 4 40.28 4 60 4 C60 4.66 60 5.32 60 6 C40.2 6 20.4 6 0 6 C0 4.02 0 2.04 0 0 Z " fill="#606F53" transform="translate(91,72)"/>
<path d="M0 0 C9.9 0 19.8 0 30 0 C30 1.32 30 2.64 30 4 C20.1 4 10.2 4 0 4 C0 2.68 0 1.36 0 0 Z " fill="#4C5B3E" transform="translate(129,98)"/>
<path d="M0 0 C9.9 0 19.8 0 30 0 C30 1.32 30 2.64 30 4 C20.1 4 10.2 4 0 4 C0 2.68 0 1.36 0 0 Z " fill="#4C5B3D" transform="translate(129,88)"/>
<path d="M0 0 C1.32 0 2.64 0 4 0 C4 1.32 4 2.64 4 4 C5.98 4 7.96 4 10 4 C10 13.24 10 22.48 10 32 C9.34 32 8.68 32 8 32 C8 23.42 8 14.84 8 6 C3.38 6 -1.24 6 -6 6 C-6 4.68 -6 3.36 -6 2 C-4.02 2 -2.04 2 0 2 C0 1.34 0 0.68 0 0 Z " fill="#D5DECB" transform="translate(67,82)"/>
<path d="M0 0 C9.24 0 18.48 0 28 0 C28 1.32 28 2.64 28 4 C18.76 4 9.52 4 0 4 C0 2.68 0 1.36 0 0 Z " fill="#4D5B3E" transform="translate(83,88)"/>
<path d="M0 0 C1.32 0 2.64 0 4 0 C4 0.66 4 1.32 4 2 C16.54 2 29.08 2 42 2 C42 2.66 42 3.32 42 4 C27.48 4 12.96 4 -2 4 C-2 3.34 -2 2.68 -2 2 C-1.34 2 -0.68 2 0 2 C0 1.34 0 0.68 0 0 Z " fill="#909888" transform="translate(29,112)"/>
<path d="M0 0 C0.66 0 1.32 0 2 0 C2 1.98 2 3.96 2 6 C1.34 6 0.68 6 0 6 C0 6.66 0 7.32 0 8 C-0.66 8 -1.32 8 -2 8 C-2 9.32 -2 10.64 -2 12 C-2.66 12 -3.32 12 -4 12 C-4 12.66 -4 13.32 -4 14 C-4.66 14 -5.32 14 -6 14 C-6 14.66 -6 15.32 -6 16 C-7.98 16 -9.96 16 -12 16 C-12 15.34 -12 14.68 -12 14 C-11.34 14 -10.68 14 -10 14 C-10 13.34 -10 12.68 -10 12 C-9.34 12 -8.68 12 -8 12 C-8 10.68 -8 9.36 -8 8 C-7.34 8 -6.68 8 -6 8 C-6 7.34 -6 6.68 -6 6 C-5.34 6 -4.68 6 -4 6 C-4 5.34 -4 4.68 -4 4 C-3.34 4 -2.68 4 -2 4 C-2 3.34 -2 2.68 -2 2 C-1.34 2 -0.68 2 0 2 C0 1.34 0 0.68 0 0 Z " fill="#E0E8D6" transform="translate(83,68)"/>
<path d="M0 0 C1.98 0 3.96 0 6 0 C6 1.32 6 2.64 6 4 C5.34 4 4.68 4 4 4 C4 4.66 4 5.32 4 6 C3.34 6 2.68 6 2 6 C2 6.66 2 7.32 2 8 C1.34 8 0.68 8 0 8 C0 8.66 0 9.32 0 10 C-0.66 10 -1.32 10 -2 10 C-2 11.32 -2 12.64 -2 14 C-2.66 14 -3.32 14 -4 14 C-4 13.34 -4 12.68 -4 12 C-5.32 12 -6.64 12 -8 12 C-8 11.34 -8 10.68 -8 10 C-7.34 10 -6.68 10 -6 10 C-6 9.34 -6 8.68 -6 8 C-5.34 8 -4.68 8 -4 8 C-4 6.68 -4 5.36 -4 4 C-3.34 4 -2.68 4 -2 4 C-2 3.34 -2 2.68 -2 2 C-1.34 2 -0.68 2 0 2 C0 1.34 0 0.68 0 0 Z " fill="#5F6C54" transform="translate(97,56)"/>
<path d="M0 0 C0.66 0 1.32 0 2 0 C2 1.32 2 2.64 2 4 C3.32 4 4.64 4 6 4 C6 4.66 6 5.32 6 6 C-3.9 6 -13.8 6 -24 6 C-24 5.34 -24 4.68 -24 4 C-17.4 4 -10.8 4 -4 4 C-4 3.34 -4 2.68 -4 2 C-2.68 2 -1.36 2 0 2 C0 1.34 0 0.68 0 0 Z " fill="#B3BEA9" transform="translate(117,70)"/>
<path d="M0 0 C1.32 0 2.64 0 4 0 C4 1.32 4 2.64 4 4 C4.66 4 5.32 4 6 4 C6 5.32 6 6.64 6 8 C7.32 8 8.64 8 10 8 C10 9.98 10 11.96 10 14 C9.34 14 8.68 14 8 14 C8 14.66 8 15.32 8 16 C6.68 16 5.36 16 4 16 C4 13.36 4 10.72 4 8 C3.34 8 2.68 8 2 8 C2 6.68 2 5.36 2 4 C1.34 4 0.68 4 0 4 C0 2.68 0 1.36 0 0 Z " fill="#818B7A" transform="translate(109,56)"/>
<path d="M0 0 C1.32 0 2.64 0 4 0 C4 0.66 4 1.32 4 2 C5.98 2 7.96 2 10 2 C10 2.66 10 3.32 10 4 C8.68 4 7.36 4 6 4 C6 4.66 6 5.32 6 6 C4.68 6 3.36 6 2 6 C2 7.32 2 8.64 2 10 C1.34 10 0.68 10 0 10 C0 10.66 0 11.32 0 12 C-0.66 12 -1.32 12 -2 12 C-2 10.68 -2 9.36 -2 8 C-2.66 8 -3.32 8 -4 8 C-4 6.68 -4 5.36 -4 4 C-3.34 4 -2.68 4 -2 4 C-2 3.34 -2 2.68 -2 2 C-1.34 2 -0.68 2 0 2 C0 1.34 0 0.68 0 0 Z " fill="#6D7A62" transform="translate(117,30)"/>
<path d="M0 0 C0.66 0 1.32 0 2 0 C2 9.24 2 18.48 2 28 C1.34 28 0.68 28 0 28 C0 20.08 0 12.16 0 4 C-1.98 4 -3.96 4 -6 4 C-6 3.34 -6 2.68 -6 2 C-4.02 2 -2.04 2 0 2 C0 1.34 0 0.68 0 0 Z " fill="#57644A" transform="translate(77,82)"/>
<path d="M0 0 C0.66 0 1.32 0 2 0 C2 1.98 2 3.96 2 6 C2.66 6 3.32 6 4 6 C4 6.66 4 7.32 4 8 C4.66 8 5.32 8 6 8 C6 9.32 6 10.64 6 12 C5.34 12 4.68 12 4 12 C4 11.34 4 10.68 4 10 C1.36 10 -1.28 10 -4 10 C-4 11.98 -4 13.96 -4 16 C-4.66 16 -5.32 16 -6 16 C-6 13.36 -6 10.72 -6 8 C-4.68 8 -3.36 8 -2 8 C-2 6.68 -2 5.36 -2 4 C-1.34 4 -0.68 4 0 4 C0 2.68 0 1.36 0 0 Z " fill="#7E8A73" transform="translate(91,36)"/>
<path d="M0 0 C0.66 0 1.32 0 2 0 C2 1.98 2 3.96 2 6 C1.34 6 0.68 6 0 6 C0 8.64 0 11.28 0 14 C-0.66 14 -1.32 14 -2 14 C-2 14.66 -2 15.32 -2 16 C-3.32 16 -4.64 16 -6 16 C-6 13.36 -6 10.72 -6 8 C-5.34 8 -4.68 8 -4 8 C-4 8.66 -4 9.32 -4 10 C-3.34 10 -2.68 10 -2 10 C-2 7.36 -2 4.72 -2 2 C-1.34 2 -0.68 2 0 2 C0 1.34 0 0.68 0 0 Z " fill="#6C7664" transform="translate(129,56)"/>
<path d="M0 0 C1.98 0 3.96 0 6 0 C6 0.66 6 1.32 6 2 C5.34 2 4.68 2 4 2 C4 3.32 4 4.64 4 6 C3.34 6 2.68 6 2 6 C2 6.66 2 7.32 2 8 C1.34 8 0.68 8 0 8 C0 8.66 0 9.32 0 10 C-0.66 10 -1.32 10 -2 10 C-2 10.66 -2 11.32 -2 12 C-2.66 12 -3.32 12 -4 12 C-4 10.02 -4 8.04 -4 6 C-3.34 6 -2.68 6 -2 6 C-2 4.68 -2 3.36 -2 2 C-1.34 2 -0.68 2 0 2 C0 1.34 0 0.68 0 0 Z " fill="#EDF3E7" transform="translate(95,50)"/>
<path d="M0 0 C0.66 0 1.32 0 2 0 C2 1.32 2 2.64 2 4 C2.66 4 3.32 4 4 4 C4 4.66 4 5.32 4 6 C-3.92 6 -11.84 6 -20 6 C-20 5.34 -20 4.68 -20 4 C-13.4 4 -6.8 4 0 4 C0 2.68 0 1.36 0 0 Z " fill="#B3BFAA" transform="translate(147,70)"/>
<path d="M0 0 C1.32 0 2.64 0 4 0 C4 0.66 4 1.32 4 2 C4.66 2 5.32 2 6 2 C6 2.66 6 3.32 6 4 C7.98 4 9.96 4 12 4 C12 2.68 12 1.36 12 0 C13.32 0 14.64 0 16 0 C16 1.98 16 3.96 16 6 C12.04 6 8.08 6 4 6 C4 5.34 4 4.68 4 4 C3.34 4 2.68 4 2 4 C2 3.34 2 2.68 2 2 C1.34 2 0.68 2 0 2 C0 1.34 0 0.68 0 0 Z " fill="#E0E8D8" transform="translate(67,52)"/>
<path d="M0 0 C1.32 0 2.64 0 4 0 C4 1.32 4 2.64 4 4 C7.96 4 11.92 4 16 4 C16 4.66 16 5.32 16 6 C15.34 6 14.68 6 14 6 C14 7.32 14 8.64 14 10 C12.68 10 11.36 10 10 10 C10 9.34 10 8.68 10 8 C10.66 8 11.32 8 12 8 C12 7.34 12 6.68 12 6 C8.7 6 5.4 6 2 6 C2 4.68 2 3.36 2 2 C1.34 2 0.68 2 0 2 C0 1.34 0 0.68 0 0 Z " fill="#C1CCB5" transform="translate(33,78)"/>
<path d="M0 0 C1.32 0 2.64 0 4 0 C4 1.98 4 3.96 4 6 C0.7 6 -2.6 6 -6 6 C-6 4.68 -6 3.36 -6 2 C-4.02 2 -2.04 2 0 2 C0 1.34 0 0.68 0 0 Z " fill="#9CAB8E" transform="translate(67,82)"/>
<path d="M0 0 C0.66 0 1.32 0 2 0 C2 1.32 2 2.64 2 4 C2.66 4 3.32 4 4 4 C4 4.66 4 5.32 4 6 C5.32 6 6.64 6 8 6 C8 5.34 8 4.68 8 4 C8.66 4 9.32 4 10 4 C10 5.32 10 6.64 10 8 C9.34 8 8.68 8 8 8 C8 8.66 8 9.32 8 10 C6.68 10 5.36 10 4 10 C4 9.34 4 8.68 4 8 C2.68 8 1.36 8 0 8 C0 5.36 0 2.72 0 0 Z " fill="#C5CFBC" transform="translate(119,66)"/>
<path d="M0 0 C0.66 0 1.32 0 2 0 C2 0.66 2 1.32 2 2 C2.66 2 3.32 2 4 2 C4 3.32 4 4.64 4 6 C-0.62 6 -5.24 6 -10 6 C-10 6.66 -10 7.32 -10 8 C-10.66 8 -11.32 8 -12 8 C-12 6.68 -12 5.36 -12 4 C-8.04 4 -4.08 4 0 4 C0 2.68 0 1.36 0 0 Z " fill="#CDD6C7" transform="translate(49,38)"/>
<path d="M0 0 C1.98 0 3.96 0 6 0 C6 0.66 6 1.32 6 2 C5.34 2 4.68 2 4 2 C4 2.66 4 3.32 4 4 C3.34 4 2.68 4 2 4 C2 5.32 2 6.64 2 8 C0.02 8 -1.96 8 -4 8 C-4 6.68 -4 5.36 -4 4 C-2.68 4 -1.36 4 0 4 C0 2.68 0 1.36 0 0 Z " fill="#738069" transform="translate(81,62)"/>
<path d="M0 0 C1.98 0 3.96 0 6 0 C6 1.32 6 2.64 6 4 C6.66 4 7.32 4 8 4 C8 5.32 8 6.64 8 8 C7.34 8 6.68 8 6 8 C6 7.34 6 6.68 6 6 C3.36 6 0.72 6 -2 6 C-2 5.34 -2 4.68 -2 4 C-0.68 4 0.64 4 2 4 C2 3.34 2 2.68 2 2 C1.34 2 0.68 2 0 2 C0 1.34 0 0.68 0 0 Z " fill="#B4BEAB" transform="translate(73,58)"/>
<path d="M0 0 C0.66 0 1.32 0 2 0 C2 1.32 2 2.64 2 4 C3.32 4 4.64 4 6 4 C6 4.66 6 5.32 6 6 C2.7 6 -0.6 6 -4 6 C-4 4.68 -4 3.36 -4 2 C-2.68 2 -1.36 2 0 2 C0 1.34 0 0.68 0 0 Z " fill="#BECAB6" transform="translate(117,70)"/>
<path d="M0 0 C0.66 0 1.32 0 2 0 C2 1.98 2 3.96 2 6 C1.34 6 0.68 6 0 6 C0 6.66 0 7.32 0 8 C-1.98 8 -3.96 8 -6 8 C-6 7.34 -6 6.68 -6 6 C-5.34 6 -4.68 6 -4 6 C-4 5.34 -4 4.68 -4 4 C-3.34 4 -2.68 4 -2 4 C-2 3.34 -2 2.68 -2 2 C-1.34 2 -0.68 2 0 2 C0 1.34 0 0.68 0 0 Z " fill="#F3F7ED" transform="translate(83,68)"/>
<path d="M0 0 C1.32 0 2.64 0 4 0 C4 3.96 4 7.92 4 12 C3.34 12 2.68 12 2 12 C2 10.02 2 8.04 2 6 C1.34 6 0.68 6 0 6 C0 4.02 0 2.04 0 0 Z " fill="#D7DBD4" transform="translate(91,30)"/>
<path d="M0 0 C1.32 0 2.64 0 4 0 C4 0.66 4 1.32 4 2 C4.66 2 5.32 2 6 2 C6 3.98 6 5.96 6 8 C5.34 8 4.68 8 4 8 C4 7.34 4 6.68 4 6 C3.34 6 2.68 6 2 6 C2 5.34 2 4.68 2 4 C1.34 4 0.68 4 0 4 C0 2.68 0 1.36 0 0 Z " fill="#CDD8C3" transform="translate(201,72)"/>
<path d="M0 0 C1.32 0 2.64 0 4 0 C4 0.66 4 1.32 4 2 C3.34 2 2.68 2 2 2 C2 2.66 2 3.32 2 4 C2.66 4 3.32 4 4 4 C4 4.66 4 5.32 4 6 C1.36 6 -1.28 6 -4 6 C-4 5.34 -4 4.68 -4 4 C-3.34 4 -2.68 4 -2 4 C-2 3.34 -2 2.68 -2 2 C-1.34 2 -0.68 2 0 2 C0 1.34 0 0.68 0 0 Z " fill="#66725A" transform="translate(43,56)"/>
<path d="M0 0 C2.64 0 5.28 0 8 0 C8 1.32 8 2.64 8 4 C5.36 4 2.72 4 0 4 C0 2.68 0 1.36 0 0 Z " fill="#647356" transform="translate(79,58)"/>
<path d="M0 0 C3.3 0 6.6 0 10 0 C10 0.66 10 1.32 10 2 C8.68 2 7.36 2 6 2 C6 3.32 6 4.64 6 6 C5.34 6 4.68 6 4 6 C4 5.34 4 4.68 4 4 C3.34 4 2.68 4 2 4 C2 3.34 2 2.68 2 2 C1.34 2 0.68 2 0 2 C0 1.34 0 0.68 0 0 Z " fill="#626F58" transform="translate(39,44)"/>
<path d="M0 0 C1.98 0 3.96 0 6 0 C6 0.66 6 1.32 6 2 C6.66 2 7.32 2 8 2 C8 2.66 8 3.32 8 4 C5.36 4 2.72 4 0 4 C0 2.68 0 1.36 0 0 Z " fill="#909888" transform="translate(123,104)"/>
<path d="M0 0 C2.64 0 5.28 0 8 0 C8 0.66 8 1.32 8 2 C7.34 2 6.68 2 6 2 C6 2.66 6 3.32 6 4 C4.02 4 2.04 4 0 4 C0 2.68 0 1.36 0 0 Z " fill="#4F5E44" transform="translate(231,98)"/>
<path d="M0 0 C1.98 0 3.96 0 6 0 C6 0.66 6 1.32 6 2 C5.34 2 4.68 2 4 2 C4 2.66 4 3.32 4 4 C3.34 4 2.68 4 2 4 C2 4.66 2 5.32 2 6 C1.34 6 0.68 6 0 6 C0 5.34 0 4.68 0 4 C-0.66 4 -1.32 4 -2 4 C-2 3.34 -2 2.68 -2 2 C-1.34 2 -0.68 2 0 2 C0 1.34 0 0.68 0 0 Z " fill="#627155" transform="translate(197,76)"/>
<path d="M0 0 C1.32 0 2.64 0 4 0 C4 1.32 4 2.64 4 4 C3.34 4 2.68 4 2 4 C2 4.66 2 5.32 2 6 C0.68 6 -0.64 6 -2 6 C-2 4.68 -2 3.36 -2 2 C-1.34 2 -0.68 2 0 2 C0 1.34 0 0.68 0 0 Z " fill="#516144" transform="translate(89,68)"/>
<path d="M0 0 C0.66 0 1.32 0 2 0 C2 0.66 2 1.32 2 2 C2.66 2 3.32 2 4 2 C4 3.98 4 5.96 4 8 C2.68 8 1.36 8 0 8 C0 5.36 0 2.72 0 0 Z " fill="#58654D" transform="translate(123,64)"/>
<path d="M0 0 C0.66 0 1.32 0 2 0 C2 0.66 2 1.32 2 2 C2.66 2 3.32 2 4 2 C4 3.32 4 4.64 4 6 C1.36 6 -1.28 6 -4 6 C-4 5.34 -4 4.68 -4 4 C-2.68 4 -1.36 4 0 4 C0 2.68 0 1.36 0 0 Z " fill="#89967D" transform="translate(211,60)"/>
<path d="M0 0 C1.98 0 3.96 0 6 0 C6 0.66 6 1.32 6 2 C5.34 2 4.68 2 4 2 C4 3.32 4 4.64 4 6 C3.34 6 2.68 6 2 6 C2 5.34 2 4.68 2 4 C0.68 4 -0.64 4 -2 4 C-2 3.34 -2 2.68 -2 2 C-1.34 2 -0.68 2 0 2 C0 1.34 0 0.68 0 0 Z " fill="#E0E6D9" transform="translate(95,50)"/>
<path d="M0 0 C1.32 0 2.64 0 4 0 C4 1.32 4 2.64 4 4 C3.34 4 2.68 4 2 4 C1.67 4.99 1.34 5.98 1 7 C0.01 6.67 -0.98 6.34 -2 6 C-2 5.34 -2 4.68 -2 4 C-1.34 4 -0.68 4 0 4 C0 2.68 0 1.36 0 0 Z " fill="#657057" transform="translate(59,20)"/>
<path d="M0 0 C3.3 0 6.6 0 10 0 C10 1.32 10 2.64 10 4 C9.34 4 8.68 4 8 4 C8 3.34 8 2.68 8 2 C5.36 2 2.72 2 0 2 C0 1.34 0 0.68 0 0 Z " fill="#CAD0C1" transform="translate(235,106)"/>
<path d="M0 0 C0.66 0 1.32 0 2 0 C2 1.32 2 2.64 2 4 C2.66 4 3.32 4 4 4 C4 4.66 4 5.32 4 6 C1.36 6 -1.28 6 -4 6 C-4 5.34 -4 4.68 -4 4 C-2.68 4 -1.36 4 0 4 C0 2.68 0 1.36 0 0 Z " fill="#849078" transform="translate(231,84)"/>
<path d="M0 0 C1.32 0 2.64 0 4 0 C4 1.32 4 2.64 4 4 C5.32 4 6.64 4 8 4 C8 4.66 8 5.32 8 6 C6.02 6 4.04 6 2 6 C2 4.68 2 3.36 2 2 C1.34 2 0.68 2 0 2 C0 1.34 0 0.68 0 0 Z " fill="#A9B19D" transform="translate(33,78)"/>
<path d="M0 0 C0.66 0 1.32 0 2 0 C2 2.64 2 5.28 2 8 C1.34 8 0.68 8 0 8 C0 7.34 0 6.68 0 6 C-0.66 6 -1.32 6 -2 6 C-2 4.68 -2 3.36 -2 2 C-1.34 2 -0.68 2 0 2 C0 1.34 0 0.68 0 0 Z " fill="#EAF1E4" transform="translate(227,74)"/>
<path d="M0 0 C1.98 0 3.96 0 6 0 C6 0.66 6 1.32 6 2 C6.66 2 7.32 2 8 2 C8 3.32 8 4.64 8 6 C7.34 6 6.68 6 6 6 C6 5.34 6 4.68 6 4 C5.34 4 4.68 4 4 4 C4 3.34 4 2.68 4 2 C2.68 2 1.36 2 0 2 C0 1.34 0 0.68 0 0 Z " fill="#839177" transform="translate(201,70)"/>
<path d="M0 0 C3.3 0 6.6 0 10 0 C10 0.66 10 1.32 10 2 C7.36 2 4.72 2 2 2 C2 2.66 2 3.32 2 4 C1.34 4 0.68 4 0 4 C0 2.68 0 1.36 0 0 Z " fill="#B9BFB3" transform="translate(29,72)"/>
<path d="M0 0 C0.66 0 1.32 0 2 0 C2 1.32 2 2.64 2 4 C2.66 4 3.32 4 4 4 C4 5.32 4 6.64 4 8 C2.68 8 1.36 8 0 8 C0 5.36 0 2.72 0 0 Z " fill="#F5FCF2" transform="translate(119,66)"/>
<path d="M0 0 C0.66 0 1.32 0 2 0 C2 1.98 2 3.96 2 6 C1.34 6 0.68 6 0 6 C0 6.66 0 7.32 0 8 C-0.66 8 -1.32 8 -2 8 C-2 6.02 -2 4.04 -2 2 C-1.34 2 -0.68 2 0 2 C0 1.34 0 0.68 0 0 Z " fill="#566649" transform="translate(117,64)"/>
<path d="M0 0 C0.66 0 1.32 0 2 0 C2 1.32 2 2.64 2 4 C2.66 4 3.32 4 4 4 C4 4.66 4 5.32 4 6 C3.34 6 2.68 6 2 6 C2 6.66 2 7.32 2 8 C1.34 8 0.68 8 0 8 C0 6.68 0 5.36 0 4 C-0.66 4 -1.32 4 -2 4 C-2 3.34 -2 2.68 -2 2 C-1.34 2 -0.68 2 0 2 C0 1.34 0 0.68 0 0 Z " fill="#CDD7C5" transform="translate(89,58)"/>
<path d="M0 0 C1.32 0 2.64 0 4 0 C4 1.98 4 3.96 4 6 C2.68 6 1.36 6 0 6 C0 4.02 0 2.04 0 0 Z " fill="#697461" transform="translate(119,56)"/>
<path d="M0 0 C0.66 0 1.32 0 2 0 C2 2.64 2 5.28 2 8 C0.68 8 -0.64 8 -2 8 C-2 6.68 -2 5.36 -2 4 C-1.34 4 -0.68 4 0 4 C0 2.68 0 1.36 0 0 Z " fill="#707A67" transform="translate(91,36)"/>
<path d="M0 0 C2.64 0 5.28 0 8 0 C8 1.32 8 2.64 8 4 C7.34 4 6.68 4 6 4 C6 3.34 6 2.68 6 2 C4.02 2 2.04 2 0 2 C0 1.34 0 0.68 0 0 Z " fill="#CCD4C3" transform="translate(29,106)"/>
<path d="M0 0 C0.66 0 1.32 0 2 0 C2 1.98 2 3.96 2 6 C0.02 6 -1.96 6 -4 6 C-4 5.34 -4 4.68 -4 4 C-2.68 4 -1.36 4 0 4 C0 2.68 0 1.36 0 0 Z " fill="#D9DED1" transform="translate(127,98)"/>
<path d="M0 0 C2.64 0 5.28 0 8 0 C8 1.32 8 2.64 8 4 C7.34 4 6.68 4 6 4 C6 3.34 6 2.68 6 2 C4.02 2 2.04 2 0 2 C0 1.34 0 0.68 0 0 Z " fill="#8A9282" transform="translate(233,96)"/>
<path d="M0 0 C1.32 0 2.64 0 4 0 C4 0.66 4 1.32 4 2 C4.66 2 5.32 2 6 2 C6 2.66 6 3.32 6 4 C4.02 4 2.04 4 0 4 C0 2.68 0 1.36 0 0 Z " fill="#627157" transform="translate(35,90)"/>
<path d="M0 0 C1.98 0 3.96 0 6 0 C6 1.98 6 3.96 6 6 C5.34 6 4.68 6 4 6 C4 4.68 4 3.36 4 2 C2.68 2 1.36 2 0 2 C0 1.34 0 0.68 0 0 Z " fill="#DFE7DA" transform="translate(229,82)"/>
<path d="M0 0 C2.64 0 5.28 0 8 0 C8 1.32 8 2.64 8 4 C7.34 4 6.68 4 6 4 C6 3.34 6 2.68 6 2 C4.02 2 2.04 2 0 2 C0 1.34 0 0.68 0 0 Z " fill="#78876A" transform="translate(31,76)"/>
<path d="M0 0 C0.66 0 1.32 0 2 0 C2 1.32 2 2.64 2 4 C-0.64 4 -3.28 4 -6 4 C-6 3.34 -6 2.68 -6 2 C-4.02 2 -2.04 2 0 2 C0 1.34 0 0.68 0 0 Z " fill="#7A876C" transform="translate(45,68)"/>
<path d="M0 0 C1.32 0 2.64 0 4 0 C4 0.66 4 1.32 4 2 C3.34 2 2.68 2 2 2 C2 3.98 2 5.96 2 8 C1.34 8 0.68 8 0 8 C0 5.36 0 2.72 0 0 Z " fill="#6F7C63" transform="translate(113,64)"/>
<path d="M0 0 C0.66 0 1.32 0 2 0 C2 2.64 2 5.28 2 8 C1.34 8 0.68 8 0 8 C0 7.34 0 6.68 0 6 C-0.66 6 -1.32 6 -2 6 C-2 5.34 -2 4.68 -2 4 C-1.34 4 -0.68 4 0 4 C0 2.68 0 1.36 0 0 Z " fill="#E4EADD" transform="translate(173,50)"/>
<path d="M0 0 C1.32 0 2.64 0 4 0 C4 1.32 4 2.64 4 4 C2.02 4 0.04 4 -2 4 C-2 3.34 -2 2.68 -2 2 C-1.34 2 -0.68 2 0 2 C0 1.34 0 0.68 0 0 Z " fill="#7F8578" transform="translate(75,52)"/>
<path d="M0 0 C2.64 0 5.28 0 8 0 C8 1.32 8 2.64 8 4 C7.34 4 6.68 4 6 4 C6 3.34 6 2.68 6 2 C4.02 2 2.04 2 0 2 C0 1.34 0 0.68 0 0 Z " fill="#BFCBB4" transform="translate(41,52)"/>
<path d="M0 0 C0.66 0 1.32 0 2 0 C2 0.66 2 1.32 2 2 C2.66 2 3.32 2 4 2 C4 3.32 4 4.64 4 6 C2.68 6 1.36 6 0 6 C0 4.02 0 2.04 0 0 Z " fill="#C3CFB9" transform="translate(49,38)"/>
<path d="M0 0 C0.66 0 1.32 0 2 0 C2 1.98 2 3.96 2 6 C0.68 6 -0.64 6 -2 6 C-2 4.68 -2 3.36 -2 2 C-1.34 2 -0.68 2 0 2 C0 1.34 0 0.68 0 0 Z " fill="#88967E" transform="translate(65,32)"/>
<path d="M0 0 C1.98 0 3.96 0 6 0 C6 0.66 6 1.32 6 2 C4.68 2 3.36 2 2 2 C2 2.66 2 3.32 2 4 C0.68 4 -0.64 4 -2 4 C-2 3.34 -2 2.68 -2 2 C-1.34 2 -0.68 2 0 2 C0 1.34 0 0.68 0 0 Z " fill="#77826B" transform="translate(121,32)"/>
<path d="M0 0 C1.32 0 2.64 0 4 0 C4 1.32 4 2.64 4 4 C3.34 4 2.68 4 2 4 C2 4.66 2 5.32 2 6 C1.34 6 0.68 6 0 6 C0 4.02 0 2.04 0 0 Z " fill="#D5D8D2" transform="translate(189,20)"/>
</svg>
